<?xml version="1.0" encoding="UTF-8"?>
<svg version="1.1" xmlns="http://www.w3.org/2000/svg" width="1024" height="1024">
<path d="M0 0 C4.19067881 2.51440728 7.55720393 5.55720393 11 9 C13.10796721 10.57791743 15.23793295 12.11650021 17.390625 13.6328125 C18.18726563 14.30957031 18.18726563 14.30957031 19 15 C19 15.66 19 16.32 19 17 C19.804375 17.3403125 19.804375 17.3403125 20.625 17.6875 C26.15510172 20.74360885 30.23106159 25.01169916 34 30 C34 30.66 34 31.32 34 32 C34.58265625 32.24492187 35.1653125 32.48984375 35.765625 32.7421875 C38.36302236 34.20435874 39.83975831 35.84740414 41.75 38.125 C42.36359375 38.84945312 42.9771875 39.57390625 43.609375 40.3203125 C44.06828125 40.87460937 44.5271875 41.42890625 45 42 C46.7015625 41.38125 46.7015625 41.38125 48.4375 40.75 C50.28769065 40.15417589 52.14255593 39.57281178 54 39 C55.69962891 38.46052734 55.69962891 38.46052734 57.43359375 37.91015625 C82.01481007 30.7705275 110.54708244 33.71135807 133 46 C133.81339844 46.4228125 134.62679688 46.845625 135.46484375 47.28125 C142.64779629 51.11215802 149.94582963 55.53171709 156 61 C156 61.66 156 62.32 156 63 C156.85078125 63.36351562 156.85078125 63.36351562 157.71875 63.734375 C164.15408936 67.30466602 169.21611011 73.81964652 173 80 C174.09689458 81.49404908 175.19464925 82.98746685 176.29296875 84.48046875 C195.44520822 111.80508961 197.45425061 147.25259689 192.15600586 179.20117188 C191.60942536 182.21980954 190.97104661 185.08686017 190 188 C190.78375 188.0825 191.5675 188.165 192.375 188.25 C195 189 195 189 196.140625 190.7421875 C199.16914796 198.69894328 196.62073422 208.26580618 195.1875 216.375 C194.9397583 217.80175049 194.9397583 217.80175049 194.68701172 219.25732422 C193.72938689 224.36075285 192.40557364 228.36894913 190 233 C189.38566544 235.56109253 188.86561276 238.03605772 188.4375 240.625 C188.09525391 242.56246094 188.09525391 242.56246094 187.74609375 244.5390625 C187.57315796 245.5902124 187.57315796 245.5902124 187.39672852 246.66259766 C187.11148619 248.34315765 186.80171448 250.01962203 186.47631836 251.69287109 C184.99794018 259.62289428 184.66600557 267.31888918 184.6875 275.375 C184.67138672 276.60605469 184.65527344 277.83710937 184.63867188 279.10546875 C184.63802734 280.29527344 184.63738281 281.48507812 184.63671875 282.7109375 C184.63373779 283.77618652 184.63075684 284.84143555 184.62768555 285.93896484 C185.3548119 291.9171355 188.51907885 295.92406569 192.5 300.25 C193.66015625 301.52617188 193.66015625 301.52617188 194.84375 302.828125 C196.99897119 305.14350929 196.99897119 305.14350929 200 307 C200 307.66 200 308.32 200 309 C200.8353125 309.3403125 200.8353125 309.3403125 201.6875 309.6875 C204.6865221 311.38964768 206.64499245 313.47677762 209 316 C209.47566406 316.49371094 209.95132812 316.98742187 210.44140625 317.49609375 C216.76700288 324.3832316 220.57509789 332.78956318 224.375 341.25 C225.12910156 342.92835938 225.12910156 342.92835938 225.8984375 344.640625 C227.10033135 348.30597503 227.19257182 351.16690374 227 355 C226.67296601 357.92904134 226.67296601 357.92904134 228.20581055 359.39453125 C228.76051025 359.86246094 229.31520996 360.33039063 229.88671875 360.8125 C230.8003418 361.58980469 230.8003418 361.58980469 231.73242188 362.3828125 C232.70018555 363.18332031 232.70018555 363.18332031 233.6875 364 C234.31333984 364.53367187 234.93917969 365.06734375 235.58398438 365.6171875 C238.92022392 368.42591692 242.24595525 370.76711093 246 373 C246.9375 375 246.9375 375 247 377 C244.59590743 380.60613885 242.75820232 381.32550891 238.875 383.1875 C237.9466333 383.64032349 237.9466333 383.64032349 236.99951172 384.10229492 C234.3499469 385.39461204 231.69170421 386.66857271 229.03320312 387.94238281 C217.47383386 393.50265884 206.67444728 399.88370181 196 407 C196.53838416 409.33299801 197.17930442 411.4535347 198.0625 413.6875 C199.14700917 417.51943241 198.99788925 420.42237392 198.625 424.375 C198.51414062 425.62023437 198.40328125 426.86546875 198.2890625 428.1484375 C198.14597656 429.55996094 198.14597656 429.55996094 198 431 C196.35 431.33 194.7 431.66 193 432 C193.45602999 436.74271189 194.12308453 439.28398418 197 443 C197.8125 446.125 197.8125 446.125 198 449 C195.73419982 451.26580018 194.87490217 451.38405382 191.8125 451.9375 C188.71202428 452.56155741 186.37837938 453.27264062 183.4375 454.5625 C179.47706806 456.21868063 176.25571124 456.626692 172 457 C172 457.66 172 458.32 172 459 C170.0429132 459.67031719 168.08428887 460.33614683 166.125 461 C165.03445313 461.37125 163.94390625 461.7425 162.8203125 462.125 C160 463 160 463 158 463 C157.67 463.99 157.34 464.98 157 466 C151.8682988 469.4632219 146.1814857 472.13322583 140.33984375 474.1640625 C137.12810173 475.31149621 133.97447114 476.5985241 130.8125 477.875 C125.8394061 479.86959301 120.86428681 481.85869302 115.875 483.8125 C114.86179687 484.21082031 113.84859375 484.60914063 112.8046875 485.01953125 C106.0768206 487.37147358 99.17551838 488.44341745 92.5625 485.4375 C89.45045927 482.47726614 88.80117963 480.16613408 88 476 C81.85416112 474.53437864 75.74751099 473.08473581 69.5 472.125 C61.62910487 470.76117382 54.07072975 467.68018705 47 464 C47 463.34 47 462.68 47 462 C46.484375 461.9175 45.96875 461.835 45.4375 461.75 C43 461 43 461 39.625 458.875 C37.05708745 457.38114004 36.13450673 457 33.0625 457 C29.90270027 458.03177134 27.13627813 459.34825907 24.19921875 460.88671875 C18.03208901 464.00862279 11.80313813 466.21918203 5.03125 467.56640625 C2.2764811 468.15444346 -0.33632785 469.09192995 -3 470 C-8.28891477 471.22724689 -13.40668184 471.19101455 -18.8125 471.1875 C-19.82900635 471.18814453 -20.8455127 471.18878906 -21.89282227 471.18945312 C-30.39458291 471.13052009 -38.61037024 470.36377146 -47 469 C-47 468.34 -47 467.68 -47 467 C-48.98 467.33 -50.96 467.66 -53 468 C-53.020625 468.928125 -53.04125 469.85625 -53.0625 470.8125 C-54 474 -54 474 -56.9765625 475.7109375 C-61.46776615 477.44657739 -65.58021539 477.18630838 -70.3125 476.8125 C-71.17464111 476.75642578 -72.03678223 476.70035156 -72.92504883 476.64257812 C-98.10285003 474.89714997 -98.10285003 474.89714997 -100 473 C-103.15085448 472.61423322 -106.33031615 472.52851745 -109.5 472.375 C-110.37398438 472.3234375 -111.24796875 472.271875 -112.1484375 472.21875 C-117.23221756 471.96229819 -122.01191056 472.14370902 -127.05712891 472.79150391 C-134.79060123 473.62140908 -140.82497471 470.41468729 -146.8125 465.83984375 C-152.63828703 460.93994073 -155.08729158 455.83607388 -157.80859375 448.875 C-158.77174779 446.55079876 -159.75416312 444.647423 -161.125 442.5625 C-168.08643644 430.62052367 -167.28930498 413.49514906 -165.48901367 400.23681641 C-164.91539517 395.83106373 -164.90738853 391.51055563 -164.97265625 387.07421875 C-164.98530516 385.37304893 -164.99766592 383.67187694 -165.00976562 381.97070312 C-165.034487 379.33139023 -165.06244039 376.69219501 -165.09594727 374.05297852 C-165.34870298 352.74786094 -165.34870298 352.74786094 -163 346 C-162.34 345.67 -161.68 345.34 -161 345 C-161.3609375 344.44570313 -161.721875 343.89140625 -162.09375 343.3203125 C-162.5578125 342.59585937 -163.021875 341.87140625 -163.5 341.125 C-163.9640625 340.40570312 -164.428125 339.68640625 -164.90625 338.9453125 C-166 337 -166 337 -166 335 C-166.99 335 -167.98 335 -169 335 C-169 334.34 -169 333.68 -169 333 C-169.78375 332.835 -170.5675 332.67 -171.375 332.5 C-174 331 -174 331 -175.375 327.5625 C-177.12029641 318.09045444 -174.4603352 309.55390207 -171.3515625 300.67578125 C-166.95019286 286.57346691 -166.03890433 271.66916159 -164.77050781 257.04077148 C-163.10617574 238.08178202 -163.10617574 238.08178202 -160 229 C-159.76716309 228.28932373 -159.53432617 227.57864746 -159.29443359 226.84643555 C-158.62886002 224.8815548 -157.92215865 222.9400163 -157.1875 221 C-156.92960693 220.31631348 -156.67171387 219.63262695 -156.40600586 218.92822266 C-154.48784021 213.97650276 -152.20062707 209.36895108 -149.56640625 204.75390625 C-144.56456339 195.96014262 -140.49384545 187.03767049 -137.06079102 177.546875 C-135.60744933 173.54467844 -133.99854493 169.7942864 -131.9921875 166.046875 C-130.65397101 163.28614492 -129.62936257 160.43839042 -128.5625 157.5625 C-125.43951501 149.32049373 -122.23295505 143.23295505 -116 137 C-114.4413198 134.62507502 -113.01871712 132.19171625 -111.59375 129.734375 C-105.29547292 118.92850747 -98.38216805 108.30645353 -90.7578125 98.390625 C-88.77108486 95.68867541 -86.89579164 92.92286659 -85.01586914 90.14599609 C-81.14205418 84.42605094 -77.3105834 78.93334491 -72.609375 73.8515625 C-70.7190545 71.6767763 -69.12454931 69.3793178 -67.5 67 C-64.80755263 63.06349771 -61.91536377 59.50874084 -58.7265625 55.96875 C-57.01462942 54.01668151 -55.44242834 52.00681426 -53.875 49.9375 C-49.06365078 43.66419887 -43.79510507 37.77611636 -38.59155273 31.82885742 C-36.48495264 29.40815773 -34.4027749 26.96701169 -32.32421875 24.5222168 C-29.34605276 21.09875349 -26.11175548 18.07630409 -22.625 15.1875 C-19.23476184 12.34383618 -16.46101045 9.16439473 -13.67578125 5.734375 C-11.90640727 3.9031348 -10.32716666 2.99373565 -8 2 C-8 1.34 -8 0.68 -8 0 C-4.52931203 -1.15689599 -3.4505468 -1.09790125 0 0 Z M-160 346 C-159 348 -159 348 -159 348 Z " fill="#FBFCFB" transform="translate(483,271)"/>
<path d="M0 0 C1.57587891 0.00845947 1.57587891 0.00845947 3.18359375 0.01708984 C25.77352049 0.36788668 47.22351757 8.39297359 64.25 23.3125 C64.93835938 23.90546875 65.62671875 24.4984375 66.3359375 25.109375 C74.6676083 32.81534721 81.52132648 43.61610324 85.25 54.3125 C85.69472656 55.50359375 85.69472656 55.50359375 86.1484375 56.71875 C87.14667001 59.90576754 87.71855996 63.01343068 88.25 66.3125 C88.46317871 67.38854492 88.46317871 67.38854492 88.68066406 68.48632812 C92.42490857 89.59656977 80.30169005 107.20705637 70.52957153 124.97018433 C63.5575565 137.73278467 56.97722875 150.70854828 50.37872314 163.66662598 C43.8258607 176.52804289 37.2299325 189.35919373 30.375 202.0625 C25.50261924 211.09215419 20.67834301 220.1436702 15.94647217 229.24768066 C15.28288048 230.52348194 14.61776173 231.7984903 13.95098877 233.07263184 C13.02925753 234.83515092 12.11410727 236.60110681 11.19921875 238.3671875 C10.67674561 239.37249512 10.15427246 240.37780273 9.6159668 241.41357422 C5.6767231 249.77364207 4.91773555 258.56161375 6.71484375 267.66796875 C8.32222357 271.97650756 11.34189231 275.03342317 15.25 277.3125 C16.15105469 277.59480469 17.05210937 277.87710937 17.98046875 278.16796875 C21.24254773 279.22372747 23.56550397 280.15881194 26.25 282.3125 C27.34974713 285.50519149 27.84975428 288.34890141 28.26171875 291.67651367 C30.95619023 313.10959084 45.40933472 335.21420478 62.25 348.3125 C61.25 351.3125 61.25 351.3125 58.59765625 352.91796875 C57.51355469 353.44003906 56.42945313 353.96210937 55.3125 354.5 C54.23097656 355.02980469 53.14945313 355.55960938 52.03515625 356.10546875 C49.25 357.3125 49.25 357.3125 47.25 357.3125 C46.92 358.3025 46.59 359.2925 46.25 360.3125 C43.82805308 361.15167026 41.54776658 361.80256419 39.0625 362.375 C33.52616441 363.71978763 33.52616441 363.71978763 28.07421875 365.37109375 C21.83846103 367.44967966 15.9510688 367.50423475 9.4375 367.5 C8.42099365 367.50064453 7.4044873 367.50128906 6.35717773 367.50195312 C-2.14458291 367.44302009 -10.36037024 366.67627146 -18.75 365.3125 C-18.75 364.6525 -18.75 363.9925 -18.75 363.3125 C-19.41902344 363.18875 -20.08804688 363.065 -20.77734375 362.9375 C-45.921079 357.53750317 -67.74322787 341.08098817 -81.72265625 319.734375 C-92.96743868 300.75474223 -98.19701074 283.00096519 -98.1875 260.875 C-98.18823517 260.12815948 -98.18897034 259.38131897 -98.18972778 258.61184692 C-98.122643 232.58121334 -89.28443891 211.22781879 -77.0625 188.625 C-76.2637135 187.13378983 -75.46554461 185.64224867 -74.66796875 184.15039062 C-72.37333742 179.86492423 -70.06342425 175.58784257 -67.75 171.3125 C-67.14333496 170.1889209 -66.53666992 169.0653418 -65.91162109 167.90771484 C-61.73037691 160.17259872 -57.51552388 152.45677162 -53.21875 144.78515625 C-46.48069291 132.75423732 -40.05573858 120.5754302 -33.75 108.3125 C-33.18152344 107.21059326 -33.18152344 107.21059326 -32.6015625 106.08642578 C-23.29621011 87.9960861 -15.08678895 69.65859076 -8.75 50.3125 C-10.19632813 51.14394531 -10.19632813 51.14394531 -11.671875 51.9921875 C-12.94788361 52.72401597 -14.22392712 53.4557836 -15.5 54.1875 C-16.13421875 54.55230469 -16.7684375 54.91710937 -17.421875 55.29296875 C-20.49250368 57.0521831 -23.55851875 58.78123374 -26.75 60.3125 C-25.20262907 55.73954346 -22.75531581 52.23030322 -19.9375 48.375 C-19.51146484 47.78009766 -19.08542969 47.18519531 -18.64648438 46.57226562 C-16.52322445 43.63310854 -14.34402641 40.81551195 -11.9609375 38.08203125 C-9.4913218 35.44943265 -9.4913218 35.44943265 -9.1875 31.9375 C-10.25480313 25.0593243 -13.2939736 19.70104298 -18.75 15.3125 C-24.86893908 11.61966659 -30.73436954 9.55720863 -37.75 8.3125 C-35.24128725 5.80378725 -33.20149818 5.34410943 -29.8125 4.3125 C-28.75160156 3.9825 -27.69070313 3.6525 -26.59765625 3.3125 C-17.69609085 0.99899671 -9.19573881 -0.05218075 0 0 Z " fill="#203F16" transform="translate(454.75,374.6875)"/>
<path d="M0 0 C0.91136719 0.71027344 1.82273437 1.42054688 2.76171875 2.15234375 C3.29200684 2.56210449 3.82229492 2.97186523 4.36865234 3.39404297 C27.05122642 21.11049309 41.92419066 47.58417104 45.76171875 76.15234375 C46.28655868 81.99725603 46.29501547 87.85088641 46.26171875 93.71484375 C46.26057068 94.88998535 46.26057068 94.88998535 46.25939941 96.08886719 C46.21294673 109.3218236 44.700153 121.46945254 40.76171875 134.15234375 C40.29572266 135.85003906 40.29572266 135.85003906 39.8203125 137.58203125 C38.1855689 143.10937058 35.82801897 148.18481185 33.22387695 153.31274414 C32.87454511 154.00598062 32.52521326 154.69921709 32.1652956 155.41346073 C31.41659114 156.89893549 30.66683337 158.38387975 29.91611099 159.86833572 C28.38828834 162.89118972 26.8679782 165.91779378 25.3475523 168.94437313 C24.14379828 171.3403001 22.93894185 173.73567036 21.7339325 176.13096619 C18.56701276 182.42774528 15.40631324 188.72764355 12.24624157 195.0278616 C9.86617838 199.7723916 7.48388413 204.51577327 5.09643555 209.2565918 C-7.82289659 234.76430808 -7.82289659 234.76430808 -19.875 260.6875 C-20.29336624 261.63282089 -20.71173248 262.57814178 -21.14277649 263.55210876 C-23.31177692 268.591358 -25.09554389 273.63186954 -26.58894348 278.91160583 C-27.23113835 281.12769501 -27.9651517 283.29141779 -28.73828125 285.46484375 C-32.12578797 295.60953493 -33.54270499 305.51341521 -34.23828125 316.15234375 C-33.19486572 315.66822021 -33.19486572 315.66822021 -32.13037109 315.17431641 C-28.95952285 313.70536272 -25.78643384 312.24131265 -22.61328125 310.77734375 C-21.51886719 310.26945312 -20.42445313 309.7615625 -19.296875 309.23828125 C-18.23339844 308.7484375 -17.16992188 308.25859375 -16.07421875 307.75390625 C-14.61314697 307.07835693 -14.61314697 307.07835693 -13.12255859 306.38916016 C-10.20250735 305.13700343 -7.2650697 304.11416368 -4.23828125 303.15234375 C-9.66720669 311.77475474 -15.96615517 319.59924403 -22.86328125 327.08984375 C-25.47557725 329.77100364 -25.47557725 329.77100364 -25.13671875 332.15234375 C-23.06130035 336.77240557 -17.37579466 339.21515406 -12.921875 341.16796875 C-8.06845244 342.88987867 -3.3574509 343.68696469 1.76171875 344.15234375 C1.76171875 344.81234375 1.76171875 345.47234375 1.76171875 346.15234375 C-32.26112261 350.3088288 -69.79860802 347.80093017 -97.98828125 326.33984375 C-113.4002184 314.11251606 -125.54494515 298.34422057 -129.61328125 278.65234375 C-129.85521502 276.48917125 -130.05831386 274.32155074 -130.23828125 272.15234375 C-130.34060059 271.42144531 -130.44291992 270.69054687 -130.54833984 269.9375 C-132.91498647 252.2495581 -125.91370169 239.96511858 -117.13134766 225.34472656 C-114.60812031 221.08966843 -112.31400356 216.73692077 -110.05078125 212.33984375 C-109.26392647 210.83806681 -108.47616187 209.33676623 -107.6875 207.8359375 C-103.88863471 200.57536593 -100.09676883 193.31115802 -96.3125 186.04296875 C-94.2849387 182.15139032 -92.24532647 178.26651361 -90.1953125 174.38671875 C-83.70409669 162.07698455 -77.55227068 149.64567324 -71.61914062 137.05810547 C-70.20437682 134.08099818 -68.76409462 131.11747445 -67.31640625 128.15625 C-54.84832817 105.63076364 -54.84832817 105.63076364 -53.89453125 80.96484375 C-54.73008025 78.8768547 -54.73008025 78.8768547 -56.23828125 76.15234375 C-56.56828125 75.16234375 -56.89828125 74.17234375 -57.23828125 73.15234375 C-59.06521923 72.03007687 -59.06521923 72.03007687 -61.23828125 71.15234375 C-68.54427476 67.71897292 -68.54427476 67.71897292 -70.09960938 64.20800781 C-70.56438925 61.88931899 -70.81011165 59.63526281 -70.98828125 57.27734375 C-71.19067193 55.56439157 -71.39907894 53.85214028 -71.61328125 52.140625 C-71.71253906 51.2945166 -71.81179688 50.4484082 -71.9140625 49.57666016 C-74.65306567 29.09601142 -85.27046716 8.46091594 -98.90234375 -6.89453125 C-99.34320312 -7.5390625 -99.7840625 -8.18359375 -100.23828125 -8.84765625 C-99.90828125 -9.83765625 -99.57828125 -10.82765625 -99.23828125 -11.84765625 C-96.4296875 -13.1640625 -96.4296875 -13.1640625 -92.80078125 -14.41015625 C-91.62644531 -14.82394531 -90.45210937 -15.23773438 -89.2421875 -15.6640625 C-59.81777767 -24.81170181 -24.83148742 -17.88858937 0 0 Z " fill="#214116" transform="translate(629.23828125,326.84765625)"/>
<path d="M0 0 C3.49191706 1.30893508 6.16764454 3.49902877 9.02050781 5.83544922 C9.63079834 6.3254541 10.24108887 6.81545898 10.86987305 7.3203125 C18.42363527 13.44562314 25.5403372 20.00059294 32.39550781 26.89794922 C33.75869141 28.24373047 33.75869141 28.24373047 35.14941406 29.61669922 C36.07625 30.53451172 37.00308594 31.45232422 37.95800781 32.39794922 C38.88742187 33.31576172 39.81683594 34.23357422 40.77441406 35.17919922 C43.15989368 37.65355661 45.25259441 40.21612492 47.39550781 42.89794922 C48.20375 43.69458984 49.01199219 44.49123047 49.84472656 45.31201172 C67.73097923 63.44478242 79.25257081 91.47820701 80.66894531 116.73388672 C81.02182724 120.14162273 81.12196858 120.64339949 83.75878906 123.09716797 C84.73203125 123.58830078 85.70527344 124.07943359 86.70800781 124.58544922 C91.9993717 127.55026011 95.14233894 129.75285219 96.95410156 135.74560547 C100.64995032 153.76695647 88.92666049 171.45429693 81.28515625 187.03320312 C79.16110515 191.36894889 77.06406118 195.71763937 74.96582031 200.06591797 C67.74691389 215.01080841 60.51546607 229.92407296 52.64990234 244.54199219 C50.62921368 248.33717428 48.66362212 252.16068811 46.68994141 255.98046875 C40.98026466 267.02741571 35.13755697 277.99171663 29.14941406 288.89013672 C28.70549316 289.70957764 28.26157227 290.52901855 27.80419922 291.37329102 C26.82116493 293.13508609 25.79341661 294.87234674 24.73291016 296.58862305 C20.75996371 303.21547896 19.53148206 308.14804176 19.89550781 315.83544922 C19.92249756 316.7998291 19.9494873 317.76420898 19.97729492 318.7578125 C20.07290687 321.47575972 20.21971686 324.18414294 20.39550781 326.89794922 C20.46898437 328.06197266 20.54246094 329.22599609 20.61816406 330.42529297 C22.92824566 349.78218357 35.77962879 367.63608023 50.58300781 379.49560547 C61.34623903 387.77417792 73.15333857 392.78760197 86.08300781 396.71044922 C86.72278564 396.90550049 87.36256348 397.10055176 88.02172852 397.30151367 C102.01084596 401.27611315 115.79402536 401.1459374 130.20800781 401.02294922 C132.26855033 401.012897 134.3290976 401.00377513 136.38964844 400.99560547 C141.39172099 400.97377503 146.39356069 400.93936925 151.39550781 400.89794922 C151.39550781 400.23794922 151.39550781 399.57794922 151.39550781 398.89794922 C152.00322021 398.7476123 152.61093262 398.59727539 153.23706055 398.44238281 C165.13813484 395.47636204 176.79532412 392.29221553 188.29003906 387.99951172 C191.39550781 386.89794922 191.39550781 386.89794922 193.39550781 386.89794922 C178.63330332 419.05561631 147.10387465 453.22770991 113.90698242 465.94848633 C95.43534007 472.71706627 77.16826113 473.1627799 59.08300781 465.02685547 C53.65930912 462.44244554 48.48086955 459.75197377 43.61816406 456.20654297 C40.59385388 453.79995382 40.59385388 453.79995382 37.39550781 452.89794922 C35.68192138 451.27956203 34.02473521 449.60123241 32.39550781 447.89794922 C31.87988281 447.41455078 31.36425781 446.93115234 30.83300781 446.43310547 C16.42755738 432.79461188 2.37252571 410.05700607 1.28222656 389.79248047 C1.2724546 388.1605624 1.32612603 386.52842101 1.39550781 384.89794922 C0.81542969 384.72779297 0.23535156 384.55763672 -0.36230469 384.38232422 C-8.28362588 381.92488464 -13.69493304 378.63105891 -18.60449219 371.89794922 C-19.85957687 368.31656108 -19.8774324 364.66631062 -19.97949219 360.89794922 C-20.05296875 359.07263672 -20.05296875 359.07263672 -20.12792969 357.21044922 C-19.49234279 346.63763246 -12.34658756 336.19437438 -7.54199219 327.02294922 C-6.87464532 325.74009005 -6.20749347 324.45712942 -5.54052734 323.17407227 C-1.14899595 314.74737471 3.37821033 306.40126999 7.97143555 298.08276367 C12.37044403 290.06182369 16.46750413 281.89998959 20.50537109 273.69213867 C24.02510323 266.55532011 27.68957293 259.5071412 31.40841675 252.47247314 C35.94165034 243.88726559 40.37300278 235.25088004 44.79248047 226.60668945 C46.60730552 223.0572689 48.42515343 219.50939904 50.24313354 215.96159363 C51.11667847 214.25244067 51.98729015 212.54178493 52.85476685 210.82954407 C54.63619106 207.31400656 56.42256259 203.81236855 58.34814453 200.37329102 C62.04742856 193.59309603 63.31146773 188.29886958 63.02050781 180.58544922 C62.99867432 179.58852051 62.97684082 178.5915918 62.9543457 177.56445312 C62.29545718 159.40026132 55.4005574 144.46992295 43.39550781 130.89794922 C42.87730469 130.28564453 42.35910156 129.67333984 41.82519531 129.04248047 C28.29496342 114.18642184 4.70507129 104.85265716 -15.10986328 103.75976562 C-31.1597505 103.18505351 -45.39607587 104.63896414 -60.60449219 109.89794922 C-59.28449219 110.55794922 -57.96449219 111.21794922 -56.60449219 111.89794922 C-57.27609375 111.84251953 -57.94769531 111.78708984 -58.63964844 111.72998047 C-75.03456884 111.62420679 -91.83817782 122.31634983 -104.60449219 131.89794922 C-105.26449219 131.56794922 -105.92449219 131.23794922 -106.60449219 130.89794922 C-93.50574713 106.35895653 -76.67878444 83.99211687 -58.99414062 62.58740234 C-57.09007624 60.27255246 -55.22058086 57.93096778 -53.35449219 55.58544922 C-52.10512979 54.02243935 -50.85512493 52.45994281 -49.60449219 50.89794922 C-48.90066406 50.01880859 -48.19683594 49.13966797 -47.47167969 48.23388672 C-42.8761859 42.54956514 -38.11931231 37.06803228 -33.15917969 31.69873047 C-31.22330804 29.57637577 -29.33788234 27.43296551 -27.46386719 25.25732422 C-22.81868472 19.93877229 -17.92121576 14.87752992 -12.97949219 9.83544922 C-12.51414062 9.3469751 -12.04878906 8.85850098 -11.56933594 8.35522461 C-10.20768854 6.92696458 -8.82433403 5.51949803 -7.44042969 4.11279297 C-6.63138184 3.27868896 -5.82233398 2.44458496 -4.98876953 1.58520508 C-2.60449219 -0.10205078 -2.60449219 -0.10205078 0 0 Z " fill="#9DCF57" transform="translate(479.6044921875,272.10205078125)"/>
<path d="M0 0 C4.19067881 2.51440728 7.55720393 5.55720393 11 9 C13.10796721 10.57791743 15.23793295 12.11650021 17.390625 13.6328125 C18.18726563 14.30957031 18.18726563 14.30957031 19 15 C19 15.66 19 16.32 19 17 C19.804375 17.3403125 19.804375 17.3403125 20.625 17.6875 C26.15510172 20.74360885 30.23106159 25.01169916 34 30 C34 30.66 34 31.32 34 32 C34.58265625 32.24492187 35.1653125 32.48984375 35.765625 32.7421875 C38.36302236 34.20435874 39.83975831 35.84740414 41.75 38.125 C42.36359375 38.84945312 42.9771875 39.57390625 43.609375 40.3203125 C44.06828125 40.87460937 44.5271875 41.42890625 45 42 C46.7015625 41.38125 46.7015625 41.38125 48.4375 40.75 C50.28769065 40.15417589 52.14255593 39.57281178 54 39 C55.69962891 38.46052734 55.69962891 38.46052734 57.43359375 37.91015625 C82.01481007 30.7705275 110.54708244 33.71135807 133 46 C133.81339844 46.4228125 134.62679687 46.845625 135.46484375 47.28125 C142.64779629 51.11215802 149.94582963 55.53171709 156 61 C156 61.66 156 62.32 156 63 C156.85078125 63.36351562 156.85078125 63.36351562 157.71875 63.734375 C164.15408936 67.30466602 169.21611011 73.81964652 173 80 C174.09689458 81.49404908 175.19464925 82.98746685 176.29296875 84.48046875 C195.44520822 111.80508961 197.45425061 147.25259689 192.15600586 179.20117188 C191.60942536 182.21980954 190.97104661 185.08686017 190 188 C190.78375 188.0825 191.5675 188.165 192.375 188.25 C195 189 195 189 196.140625 190.7421875 C199.16914796 198.69894328 196.62073422 208.26580618 195.1875 216.375 C194.9397583 217.80175049 194.9397583 217.80175049 194.68701172 219.25732422 C193.72938689 224.36075285 192.40557364 228.36894913 190 233 C189.38566544 235.56109253 188.86561276 238.03605772 188.4375 240.625 C188.09525391 242.56246094 188.09525391 242.56246094 187.74609375 244.5390625 C187.57315796 245.5902124 187.57315796 245.5902124 187.39672852 246.66259766 C187.11148619 248.34315765 186.80171448 250.01962203 186.47631836 251.69287109 C184.99794018 259.62289428 184.66600557 267.31888918 184.6875 275.375 C184.67138672 276.60605469 184.65527344 277.83710937 184.63867188 279.10546875 C184.63802734 280.29527344 184.63738281 281.48507812 184.63671875 282.7109375 C184.63373779 283.77618652 184.63075684 284.84143555 184.62768555 285.93896484 C185.3548119 291.9171355 188.51907885 295.92406569 192.5 300.25 C193.66015625 301.52617188 193.66015625 301.52617188 194.84375 302.828125 C196.99897119 305.14350929 196.99897119 305.14350929 200 307 C200 307.66 200 308.32 200 309 C200.8353125 309.3403125 200.8353125 309.3403125 201.6875 309.6875 C204.6865221 311.38964768 206.64499245 313.47677762 209 316 C209.47566406 316.49371094 209.95132812 316.98742187 210.44140625 317.49609375 C216.76700288 324.3832316 220.57509789 332.78956318 224.375 341.25 C225.12910156 342.92835938 225.12910156 342.92835938 225.8984375 344.640625 C227.10033135 348.30597503 227.19257182 351.16690374 227 355 C226.67296601 357.92904134 226.67296601 357.92904134 228.20581055 359.39453125 C228.76051025 359.86246094 229.31520996 360.33039063 229.88671875 360.8125 C230.8003418 361.58980469 230.8003418 361.58980469 231.73242188 362.3828125 C232.70018555 363.18332031 232.70018555 363.18332031 233.6875 364 C234.31333984 364.53367187 234.93917969 365.06734375 235.58398438 365.6171875 C238.92022392 368.42591692 242.24595525 370.76711093 246 373 C246.9375 375 246.9375 375 247 377 C244.59590743 380.60613885 242.75820232 381.32550891 238.875 383.1875 C237.9466333 383.64032349 237.9466333 383.64032349 236.99951172 384.10229492 C234.3499469 385.39461204 231.69170421 386.66857271 229.03320312 387.94238281 C217.47383386 393.50265884 206.67444728 399.88370181 196 407 C196.53838416 409.33299801 197.17930442 411.4535347 198.0625 413.6875 C199.14700917 417.51943241 198.99788925 420.42237392 198.625 424.375 C198.51414062 425.62023437 198.40328125 426.86546875 198.2890625 428.1484375 C198.14597656 429.55996094 198.14597656 429.55996094 198 431 C196.35 431.33 194.7 431.66 193 432 C193.45602999 436.74271189 194.12308453 439.28398418 197 443 C197.8125 446.125 197.8125 446.125 198 449 C195.73419982 451.26580018 194.87490217 451.38405382 191.8125 451.9375 C188.71202428 452.56155741 186.37837938 453.27264062 183.4375 454.5625 C179.47706806 456.21868063 176.25571124 456.626692 172 457 C172 457.66 172 458.32 172 459 C170.0429132 459.67031719 168.08428887 460.33614683 166.125 461 C165.03445313 461.37125 163.94390625 461.7425 162.8203125 462.125 C160 463 160 463 158 463 C157.67 463.99 157.34 464.98 157 466 C151.8682988 469.4632219 146.1814857 472.13322583 140.33984375 474.1640625 C137.12810173 475.31149621 133.97447114 476.5985241 130.8125 477.875 C125.8394061 479.86959301 120.86428681 481.85869302 115.875 483.8125 C114.86179687 484.21082031 113.84859375 484.60914063 112.8046875 485.01953125 C106.0768206 487.37147358 99.17551838 488.44341745 92.5625 485.4375 C89.45045927 482.47726614 88.80117963 480.16613408 88 476 C81.85416112 474.53437864 75.74751099 473.08473581 69.5 472.125 C61.62910487 470.76117382 54.07072975 467.68018705 47 464 C47 463.34 47 462.68 47 462 C46.484375 461.9175 45.96875 461.835 45.4375 461.75 C43 461 43 461 39.625 458.875 C37.05708745 457.38114004 36.13450673 457 33.0625 457 C29.74097843 458.08457847 26.85919367 459.52629948 23.83203125 461.2578125 C22 462 22 462 19 461 C21.19912496 459.79198752 23.40661819 458.60918053 25.625 457.4375 C26.24246094 457.09525391 26.85992187 456.75300781 27.49609375 456.40039062 C30.55021874 454.80903076 32.71581726 453.99231939 36.1796875 454.0859375 C39.19322474 455.06262408 41.03211909 456.21927808 43.5 458.1875 C57.71745942 468.56816378 75.57170766 472.94407095 93 471 C124.50906487 465.76439597 151.3771314 442.96887852 169.63330078 417.74316406 C172.99604893 412.96488137 176.25447722 408.1190924 179.49121094 403.25488281 C181.72665126 399.91402086 184.01639994 396.61183634 186.3125 393.3125 C187.03050781 392.27738281 187.74851562 391.24226563 188.48828125 390.17578125 C188.98714844 389.45777344 189.48601562 388.73976563 190 388 C189.41210693 388.22139648 188.82421387 388.44279297 188.21850586 388.67089844 C147.6367524 403.88262543 147.6367524 403.88262543 131.58984375 397.35546875 C127.29420259 395.10722217 123.631048 392.19173602 120 389 C120.87348725 384.45332395 123.54253556 381.78945932 126.5625 378.4375 C131.76891651 372.5284821 136.50661156 366.47576569 141 360 C137.79072218 361.43539789 134.58275207 362.87369605 131.375 364.3125 C130.47136719 364.71662109 129.56773437 365.12074219 128.63671875 365.53710938 C124.89079933 367.21867174 121.18609054 368.90359418 117.5390625 370.79296875 C115 372 115 372 112 372 C111.30056433 363.62231492 112.36085694 356.24914941 114.3125 348.125 C114.52543701 347.23401611 114.73837402 346.34303223 114.95776367 345.42504883 C116.05745813 341.05535042 117.39810923 337.07687716 119.19097424 332.93455124 C120.21989792 330.47417768 121.12787023 327.97303754 122.03159714 325.46440792 C125.21409426 316.65750602 129.02299046 308.28901336 133.171875 299.90234375 C133.8669537 298.48385183 134.56158149 297.06513889 135.25579834 295.64622498 C144.62028468 276.54777627 154.20541369 257.55708715 163.76904297 238.55786133 C165.82039407 234.4820526 167.86776343 230.40426355 169.91277313 226.3252697 C170.67825228 224.80044671 171.44523991 223.27637989 172.21387482 221.75314522 C177.39829969 211.47860423 182.10625624 201.24610227 185.5625 190.25 C185.95566406 189.01765625 186.34882812 187.7853125 186.75390625 186.515625 C190.24077915 174.2822864 191.54170546 162.89304542 191.4375 150.25 C191.43412628 149.45563538 191.43075256 148.66127075 191.42727661 147.84283447 C191.35530603 136.1506315 190.8635989 125.13609354 187 114 C186.75862305 113.26765137 186.51724609 112.53530273 186.26855469 111.78076172 C181.04817659 96.20827535 173.62241834 82.71393345 162 71 C160.7625 69.700625 160.7625 69.700625 159.5 68.375 C158.2625 67.199375 158.2625 67.199375 157 66 C156.41476562 65.41992188 155.82953125 64.83984375 155.2265625 64.2421875 C133.92835387 44.05243583 105.62931374 37.01754337 77.0703125 37.640625 C67.800608 38.04150849 58.74165892 39.75990525 50.2890625 43.69921875 C46.8818902 45.04671088 46.24262017 45.24012055 43 44 C40.90730918 41.96200124 38.98141284 39.9396209 37.0625 37.75 C36.03353632 36.5980784 35.00359956 35.44702522 33.97265625 34.296875 C33.23039795 33.4605957 33.23039795 33.4605957 32.47314453 32.60742188 C31.07177532 31.07831766 29.61728589 29.63871055 28.12109375 28.203125 C26 26 26 26 26 24 C25.16082031 23.64421875 25.16082031 23.64421875 24.3046875 23.28125 C21.47093687 21.70587677 19.46388964 19.74647151 17.125 17.5 C12.78116087 13.49524926 8.3288151 9.80437923 3.5625 6.3125 C2.97162598 5.86648438 2.38075195 5.42046875 1.77197266 4.9609375 C-1.24234137 2.68815145 -1.24234137 2.68815145 -4.84082031 2.06103516 C-8.04840399 3.4559206 -10.20736784 5.82033173 -12.61328125 8.28515625 C-13.14592087 8.81966904 -13.67856049 9.35418182 -14.2273407 9.90489197 C-15.35454639 11.03881623 -16.47815028 12.1763307 -17.59838867 13.31713867 C-19.28916922 15.03874387 -20.99006938 16.74976387 -22.69335938 18.45898438 C-28.33288596 24.13883402 -33.83767427 29.87756753 -39 36 C-39.9007166 37.04455123 -40.80174309 38.08883534 -41.703125 39.1328125 C-46.8467882 45.17582785 -51.86076095 51.29175252 -56.73120117 57.55712891 C-59.72954356 61.40767636 -62.79014885 65.19915491 -65.89135742 68.96728516 C-71.81205622 76.16900001 -77.39145113 83.51302315 -82.71240234 91.16650391 C-84.07643138 93.10883573 -85.46704767 95.02992204 -86.86328125 96.94921875 C-92.4785027 104.7079342 -97.7395515 112.60959652 -102.6875 120.8125 C-103.20489746 121.66666504 -103.72229492 122.52083008 -104.25537109 123.40087891 C-104.73184082 124.20315918 -105.20831055 125.00543945 -105.69921875 125.83203125 C-106.12033936 126.54077393 -106.54145996 127.2495166 -106.9753418 127.97973633 C-107.9919953 129.98421757 -108.55050128 131.80488118 -109 134 C-109.66 134 -110.32 134 -111 134 C-112 131 -112 131 -110.59375 127.99609375 C-109.90775095 126.80296405 -109.20899425 125.61711024 -108.5 124.4375 C-107.94904663 123.49922363 -107.94904663 123.49922363 -107.38696289 122.54199219 C-104.18992215 117.166059 -100.67501128 112.05943334 -97 107 C-95.8515526 105.35598967 -94.7057518 103.7101276 -93.5625 102.0625 C-87.8655724 93.92585677 -81.98217305 85.92852601 -76 78 C-74.4781688 75.97991802 -72.95740876 73.95902881 -71.4375 71.9375 C-70.66792969 70.91398437 -69.89835937 69.89046875 -69.10546875 68.8359375 C-67.44645248 66.60134416 -65.83351805 64.35035889 -64.25 62.0625 C-62.03683342 59.05013438 -59.63904134 56.63904134 -57 54 C-55.98434263 52.72060839 -54.98632287 51.42714054 -54 50.125 C-49.15571794 43.77952284 -43.84580267 37.83405981 -38.59155273 31.82885742 C-36.48495264 29.40815773 -34.4027749 26.96701169 -32.32421875 24.5222168 C-29.34605276 21.09875349 -26.11175548 18.07630409 -22.625 15.1875 C-19.23476184 12.34383618 -16.46101045 9.16439473 -13.67578125 5.734375 C-11.90640727 3.9031348 -10.32716666 2.99373565 -8 2 C-8 1.34 -8 0.68 -8 0 C-4.52931203 -1.15689599 -3.4505468 -1.09790125 0 0 Z " fill="#FCFCFB" transform="translate(483,271)"/>
<path d="M0 0 C0.33 0 0.66 0 1 0 C1.04898437 1.30453125 1.09796875 2.6090625 1.1484375 3.953125 C2.16656761 28.89492262 7.37522808 49.69267087 26.1875 67.55859375 C38.64709664 78.37421583 51.94431722 85.03603588 67.6875 89.8125 C68.32727783 90.00755127 68.96705566 90.20260254 69.6262207 90.40356445 C83.61533815 94.37816393 97.39851754 94.24798818 111.8125 94.125 C113.87304251 94.11494778 115.93358979 94.10582591 117.99414062 94.09765625 C122.99621318 94.07582581 127.99805287 94.04142003 133 94 C133 93.34 133 92.68 133 92 C133.6077124 91.84966309 134.2154248 91.69932617 134.84155273 91.54443359 C146.74262703 88.57841282 158.39981631 85.39426631 169.89453125 81.1015625 C173 80 173 80 175 80 C160.2377955 112.15766709 128.70836684 146.32976069 95.51147461 159.05053711 C77.03983226 165.81911705 58.77275332 166.26483068 40.6875 158.12890625 C35.2638013 155.54449632 30.08536174 152.85402455 25.22265625 149.30859375 C22.19834607 146.9020046 22.19834607 146.9020046 19 146 C17.28641357 144.38161281 15.6292274 142.70328319 14 141 C13.484375 140.51660156 12.96875 140.03320312 12.4375 139.53515625 C-1.96795044 125.89666267 -16.0229821 103.15905685 -17.11328125 82.89453125 C-17.12305321 81.26261318 -17.06938178 79.63047179 -17 78 C-17.66 77.67 -18.32 77.34 -19 77 C-18.34 77 -17.68 77 -17 77 C-17.02094727 76.18023682 -17.04189453 75.36047363 -17.06347656 74.51586914 C-17.68063783 46.67134968 -13.01789327 25.05410934 0 0 Z " fill="#8CC347" transform="translate(498,579)"/>
<path d="M0 0 C0.03738281 1.29292969 0.07476563 2.58585938 0.11328125 3.91796875 C0.94718524 27.87711602 7.21308659 46.92958427 24.6484375 63.8984375 C31.01369047 69.58698584 38.31693696 73.39128857 46 77 C47.0725 77.53625 48.145 78.0725 49.25 78.625 C59.54694313 82.40054581 70.11901618 83.52044296 81 84 C81 85.32 81 86.64 81 88 C81.69561035 87.67725098 82.3912207 87.35450195 83.10791016 87.02197266 C86.2787584 85.55301897 89.45184741 84.0889689 92.625 82.625 C93.71941406 82.11710938 94.81382812 81.60921875 95.94140625 81.0859375 C97.00488281 80.59609375 98.06835938 80.10625 99.1640625 79.6015625 C100.13811035 79.15119629 101.1121582 78.70083008 102.11572266 78.23681641 C105.0357739 76.98465968 107.97321155 75.96181993 111 75 C105.57107456 83.62241099 99.27212608 91.44690028 92.375 98.9375 C89.762704 101.61865989 89.762704 101.61865989 90.1015625 104 C92.1769809 108.62006182 97.86248659 111.06281031 102.31640625 113.015625 C107.16982881 114.73753492 111.88083035 115.53462094 117 116 C117 116.66 117 117.32 117 118 C82.97715864 122.15648505 45.43967323 119.64858642 17.25 98.1875 C1.43569803 85.6409492 -12.26836216 68.29990627 -14.72265625 47.5625 C-14.81417969 46.386875 -14.90570313 45.21125 -15 44 C-15.0810498 43.2265625 -15.16209961 42.453125 -15.24560547 41.65625 C-16.72925736 26.29336721 -13.68904247 14.2974287 -4 2 C-1 0 -1 0 0 0 Z " fill="#22490C" transform="translate(514,555)"/>
<path d="M0 0 C0.66 0 1.32 0 2 0 C2.22042969 1.39412109 2.22042969 1.39412109 2.4453125 2.81640625 C3.97933388 11.99230741 3.97933388 11.99230741 8.91796875 19.59765625 C11.66888239 21.45052304 14.56790109 22.32360539 17.6875 23.4375 C21.14453125 24.9140625 21.14453125 24.9140625 24 27 C25.4707811 30.8886906 25.89518003 34.47106032 26.35546875 38.57421875 C28.65053925 57.83322406 42.84195335 78.41260442 57.1875 90.8125 C58.115625 91.534375 59.04375 92.25625 60 93 C59 96 59 96 57.46875 97.02734375 C56.49421875 97.47787109 56.49421875 97.47787109 55.5 97.9375 C54.78239502 98.27394531 54.06479004 98.61039063 53.32543945 98.95703125 C52.55804443 99.30121094 51.79064941 99.64539063 51 100 C49.82860474 100.53173828 49.82860474 100.53173828 48.63354492 101.07421875 C46.42850112 102.06415393 44.21582482 103.03449899 42 104 C40.69482422 104.5878125 40.69482422 104.5878125 39.36328125 105.1875 C29.97863173 108.90560876 17.49621374 108.06110042 8 105 C-3.68315651 99.68813665 -11.46846733 92.05088907 -16 80 C-23.93966691 52.25899513 -12.85339175 24.59654651 0 0 Z " fill="#061106" transform="translate(457,630)"/>
<path d="M0 0 C1.57587891 0.00845947 1.57587891 0.00845947 3.18359375 0.01708984 C25.77352049 0.36788668 47.22351757 8.39297359 64.25 23.3125 C64.93835938 23.90546875 65.62671875 24.4984375 66.3359375 25.109375 C74.6676083 32.81534721 81.52132648 43.61610324 85.25 54.3125 C85.54648437 55.1065625 85.84296875 55.900625 86.1484375 56.71875 C91.36226843 73.36474234 89.66471458 88.52213945 81.75 103.75 C79.65306225 107.6473554 77.49962633 111.50129795 75.25 115.3125 C72.95627549 111.20583665 72.92853556 107.42336168 72.8125 102.8125 C72.50373948 95.31810834 71.58694804 88.48124603 69.25 81.3125 C68.98445312 80.46558594 68.71890625 79.61867188 68.4453125 78.74609375 C62.50130924 61.93981905 48.84932081 49.9356975 33.25 42.3125 C21.79996661 37.22359627 10.93025578 36.068832 -1.46484375 36.29785156 C-3.55958566 36.33423036 -5.6549946 36.32731317 -7.75 36.3125 C-9.2210356 34.8414644 -9.14618247 33.35048899 -9.5 31.3125 C-11.15965621 23.85590174 -13.76384685 18.19465012 -20.3125 13.9375 C-25.83318535 10.9398428 -31.61760133 9.51369149 -37.75 8.3125 C-35.24128725 5.80378725 -33.20149818 5.34410943 -29.8125 4.3125 C-28.75160156 3.9825 -27.69070313 3.6525 -26.59765625 3.3125 C-17.69609085 0.99899671 -9.19573881 -0.05218075 0 0 Z " fill="#234C0F" transform="translate(454.75,374.6875)"/>
<path d="M0 0 C6.00855047 1.40590693 10.58164233 4.21796088 14.4375 9.0625 C18.16128122 16.0632087 18.08895945 23.88975729 16.08203125 31.46484375 C11.92994544 43.06876686 6.30966464 54.08534523 0.88964844 65.13525391 C-1.23440266 69.47099967 -3.33144663 73.81969016 -5.4296875 78.16796875 C-12.64859392 93.11285919 -19.88004175 108.02612374 -27.74560547 122.64404297 C-29.76578095 126.43826123 -31.73087556 130.26080333 -33.70410156 134.07958984 C-38.39220426 143.15028767 -43.14801059 152.17481904 -48.0625 161.125 C-62.57889255 187.34393248 -62.57889255 187.34393248 -74 215 C-74.23187012 215.6703125 -74.46374023 216.340625 -74.70263672 217.03125 C-79.43828124 231.43051242 -78.82902969 247.00325066 -79 262 C-86.61790981 261.14642697 -91.84024644 258.72515966 -96.9375 252.9375 C-100.14478045 248.36955512 -100.22480575 244.54563373 -100.375 239 C-100.42398437 237.783125 -100.47296875 236.56625 -100.5234375 235.3125 C-99.8878506 224.73968324 -92.74209537 214.29642516 -87.9375 205.125 C-87.27015314 203.84214083 -86.60300128 202.55918021 -85.93603516 201.27612305 C-81.54450376 192.84942549 -77.01729749 184.50332077 -72.42407227 176.18481445 C-68.02506378 168.16387447 -63.92800368 160.00204037 -59.89013672 151.79418945 C-56.36649077 144.64943502 -52.69697733 137.59408574 -48.97349548 130.55186462 C-43.58094708 120.33886936 -38.34860997 110.04423557 -33.10180664 99.75585938 C-31.77594216 97.15701943 -30.44885666 94.55880801 -29.12109375 91.9609375 C-28.69180069 91.12023209 -28.26250763 90.27952667 -27.82020569 89.41334534 C-25.35508389 84.59959205 -22.84367601 79.81421734 -20.2880249 75.04795837 C-16.73784554 68.42364348 -13.38316913 61.84129636 -10.6875 54.8125 C-10.36120605 53.9771875 -10.03491211 53.141875 -9.69873047 52.28125 C-3.07477317 35.02383648 -0.72974117 18.35875164 0 0 Z " fill="#F9FAF8" transform="translate(560,394)"/>
<path d="M0 0 C1.11198222 1.11198222 2.22237223 2.22557304 3.328125 3.34375 C4.52670529 4.53112861 5.74839185 5.6953562 6.984375 6.84375 C13.6928029 13.21913538 18.91104578 20.3167235 24 28 C24.5053125 28.75925781 25.010625 29.51851563 25.53125 30.30078125 C29.60302332 37.02181733 31.89361462 44.65577453 34.35302734 52.07958984 C34.92588387 53.78000096 35.54735743 55.4638629 36.17578125 57.14453125 C37 60 37 60 37 66 C31.39 66 25.78 66 20 66 C20 66.33 20 66.66 20 67 C18.03933594 67.03867187 18.03933594 67.03867187 16.0390625 67.078125 C1.78079336 67.48481384 -11.47786071 69.28100616 -25 74 C-23.68 74.66 -22.36 75.32 -21 76 C-21.67160156 75.94457031 -22.34320313 75.88914062 -23.03515625 75.83203125 C-39.43007665 75.72625757 -56.23368563 86.41840062 -69 96 C-69.66 95.67 -70.32 95.34 -71 95 C-57.90125494 70.46100731 -41.07429226 48.09416765 -23.38964844 26.68945312 C-21.48558405 24.37460324 -19.61608867 22.03301856 -17.75 19.6875 C-17.14027344 18.92566406 -16.53054688 18.16382813 -15.90234375 17.37890625 C-14.49491795 15.6189015 -13.0919477 13.85533171 -11.69140625 12.08984375 C-10.90636719 11.11144531 -10.12132812 10.13304687 -9.3125 9.125 C-8.60738281 8.24070312 -7.90226562 7.35640625 -7.17578125 6.4453125 C-4.96776545 3.9637723 -2.64905203 1.99490783 0 0 Z " fill="#78B630" transform="translate(444,308)"/>
<path d="M0 0 C0.89203125 0.08378906 1.7840625 0.16757812 2.703125 0.25390625 C15.15646288 1.9440021 25.31000139 8.11855101 33 18 C42.74769098 33.04409866 43.93776416 49.27064069 40.55322266 66.66210938 C37.72661397 79.585526 32.67340545 92.06376461 27.1640625 104.0546875 C25.97849515 107.05441161 25.40960607 109.80888293 25 113 C24.01 113.33 23.02 113.66 22 114 C21.94392578 112.60587891 21.94392578 112.60587891 21.88671875 111.18359375 C21.52852632 104.44817139 21.18765262 98.97684867 18 93 C17.67 92.01 17.34 91.02 17 90 C15.17306202 88.87773312 15.17306202 88.87773312 13 88 C5.69400649 84.56662917 5.69400649 84.56662917 4.13867188 81.05566406 C3.673892 78.73697524 3.4281696 76.48291906 3.25 74.125 C3.04760932 72.41204782 2.83920231 70.69979653 2.625 68.98828125 C2.52574219 68.14217285 2.42648437 67.29606445 2.32421875 66.42431641 C-0.41478442 45.94366767 -11.03218591 25.30857219 -24.6640625 9.953125 C-25.10492187 9.30859375 -25.54578125 8.6640625 -26 8 C-25.67 7.01 -25.34 6.02 -25 5 C-16.97720702 0.98860351 -8.94602679 -0.96606502 0 0 Z " fill="#051006" transform="translate(555,310)"/>
<path d="M0 0 C0.99 0 1.98 0 3 0 C4.40234375 1.43359375 4.40234375 1.43359375 5.9375 3.4375 C14.10567242 13.10943638 24.70835754 18.78427156 36 24 C36.76699219 24.38929688 37.53398437 24.77859375 38.32421875 25.1796875 C43.87751551 27.90873619 49.68114423 29.30053719 55.68115234 30.6940918 C60.91019101 31.91019101 60.91019101 31.91019101 62 33 C61.98582031 34.02480469 61.97164063 35.04960938 61.95703125 36.10546875 C62.09127903 48.27319907 67.20944852 60.7667538 75 70 C75 70.66 75 71.32 75 72 C54.03000619 70.38692355 34.74811097 57.73411314 20.8125 42.62890625 C10.64183482 30.53137677 2.85498572 15.57264939 0 0 Z " fill="#495C46" transform="translate(367,658)"/>
<path d="M0 0 C13.36539887 1.48504432 26.02802172 9.23384635 36 18 C36.80566406 18.65226562 37.61132812 19.30453125 38.44140625 19.9765625 C53.15196963 32.32894396 62.55784097 50.49441585 67 69 C67.12890625 71.96875 67.12890625 71.96875 67 74 C66.27425781 73.27296875 65.54851562 72.5459375 64.80078125 71.796875 C63.87652344 70.87390625 62.95226562 69.9509375 62 69 C61.23042969 68.22140625 60.46085938 67.4428125 59.66796875 66.640625 C45.99597197 53.4638344 28.80282361 46.81259383 11 41 C10.90203125 39.99582031 10.8040625 38.99164063 10.703125 37.95703125 C9.4128801 25.76788842 6.86155217 14.79942282 0.953125 3.92578125 C0 2 0 2 0 0 Z " fill="#4D6249" transform="translate(596,322)"/>
<path d="M0 0 C3.40829937 1.61817175 5.79530758 3.47765964 8.5625 6.0625 C13.15535412 10.29312009 17.9312176 14.20703986 22.84765625 18.0546875 C25 20 25 20 26 23 C25.19175781 23.37511719 24.38351562 23.75023437 23.55078125 24.13671875 C22.48214844 24.64847656 21.41351562 25.16023437 20.3125 25.6875 C18.72888672 26.43580078 18.72888672 26.43580078 17.11328125 27.19921875 C13.9107347 28.87190115 13.9107347 28.87190115 11.4921875 31.515625 C8.74285888 34.25633503 6.35522305 35.51336775 2.8125 37.0625 C1.66910156 37.5678125 0.52570312 38.073125 -0.65234375 38.59375 C-4.29203792 40.12267637 -7.95958923 41.5627821 -11.640625 42.98828125 C-14.97570831 44.41839148 -18.06908059 46.19809778 -21.1875 48.046875 C-23 49 -23 49 -25 49 C-23.33305658 44.54688743 -21.22215339 40.3886198 -19.04296875 36.171875 C-18.46570793 35.04921234 -18.46570793 35.04921234 -17.87678528 33.90386963 C-17.06338999 32.32321325 -16.24888783 30.74312603 -15.43334961 29.16357422 C-14.19949938 26.77324631 -12.96958838 24.38092411 -11.74023438 21.98828125 C-7.9351442 14.59540217 -4.10711193 7.23118286 0 0 Z " fill="#0E0E0E" transform="translate(702,626)"/>
<path d="M0 0 C2.72044836 1.60753767 3.95650138 2.91199578 5.9375 5.3125 C9.93450134 10.09678948 14.52628798 13.28434555 19.75 16.625 C20.53246094 17.1509375 21.31492187 17.676875 22.12109375 18.21875 C27.9643995 21.9799583 33.97352518 24.3372705 40.55078125 26.546875 C43.33058896 27.48366001 46.03943771 28.5061938 48.75 29.625 C47 31.625 47 31.625 44.75 33.625 C43.43 33.625 42.11 33.625 40.75 33.625 C40.75 34.285 40.75 34.945 40.75 35.625 C34.4957772 35.16451506 29.91455212 33.02743856 24.4375 30.0625 C23.59807861 29.61358398 22.75865723 29.16466797 21.89379883 28.70214844 C15.62499193 25.27274589 10.00181292 21.49792462 4.75 16.625 C4.13769531 16.07972656 3.52539062 15.53445313 2.89453125 14.97265625 C-0.18269161 12.10009429 -1.98520256 9.63019188 -3.25 5.625 C-3.90213539 4.28449948 -4.56379969 2.94838632 -5.25 1.625 C-2.25 -0.375 -2.25 -0.375 0 0 Z " fill="#1C3619" transform="translate(387.25,699.375)"/>
<path d="M0 0 C0.33 0.66 0.66 1.32 1 2 C-0.24087196 4.84760296 -1.54794785 7.60058362 -2.9375 10.375 C-7.82998033 20.38388833 -11.9834958 30.61399869 -16 41 C-16.66 41 -17.32 41 -18 41 C-19.58648939 38.92513234 -21.05603132 36.85806633 -22.5 34.6875 C-22.90347656 34.09259766 -23.30695313 33.49769531 -23.72265625 32.88476562 C-29.00592156 25.08192329 -29.00592156 25.08192329 -28.85522461 22.99707031 C-27.77031974 20.46366413 -26.57705737 19.60660466 -24.31640625 18.046875 C-23.55763184 17.51344482 -22.79885742 16.98001465 -22.01708984 16.43041992 C-21.2070752 15.87588135 -20.39706055 15.32134277 -19.5625 14.75 C-17.91919057 13.5970198 -16.27725521 12.44207861 -14.63671875 11.28515625 C-13.84056152 10.72586426 -13.0444043 10.16657227 -12.22412109 9.59033203 C-8.00481731 6.57336772 -3.98744199 3.31618919 0 0 Z " fill="#0A0A0A" transform="translate(347,581)"/>
<path d="M0 0 C0.4122583 0.46639893 0.8245166 0.93279785 1.24926758 1.41333008 C3.18575557 3.16834827 4.51372003 3.69178677 7.01171875 4.38671875 C7.76904297 4.60263672 8.52636719 4.81855469 9.30664062 5.04101562 C10.48516602 5.36102539 10.48516602 5.36102539 11.6875 5.6875 C12.88342773 6.02491211 12.88342773 6.02491211 14.10351562 6.36914062 C16.06654159 6.92160901 18.03296261 7.46198869 20 8 C20 8.66 20 9.32 20 10 C20.680625 10.2475 21.36125 10.495 22.0625 10.75 C28.3245101 13.41468515 33.06351548 16.71274169 38.0703125 21.26171875 C39.81269411 22.83127303 41.59985612 24.29483224 43.4375 25.75 C46 28 46 28 47 31 C48.0828125 32.0209375 48.0828125 32.0209375 49.1875 33.0625 C56.23428209 39.9062048 60.17307204 49.76870428 63 59 C63 60.32 63 61.64 63 63 C61.515 63.495 61.515 63.495 60 64 C59.78085937 63.26136719 59.56171875 62.52273438 59.3359375 61.76171875 C55.61925455 49.871355 50.18415143 40.37868241 42 31 C41.48050781 30.38511719 40.96101562 29.77023437 40.42578125 29.13671875 C23.20657285 10.26932415 -5.55514741 3.45596301 -30 2 C-30 1.67 -30 1.34 -30 1 C-25.75001434 0.97097004 -21.50005419 0.95319113 -17.25 0.9375 C-16.0434375 0.92912109 -14.836875 0.92074219 -13.59375 0.91210938 C-11.85351562 0.90727539 -11.85351562 0.90727539 -10.078125 0.90234375 C-9.00981445 0.89710693 -7.94150391 0.89187012 -6.84082031 0.88647461 C-4.37610765 0.98496992 -2.34754533 1.28434536 0 2 C0 1.34 0 0.68 0 0 Z " fill="#9FD444" transform="translate(481,372)"/>
<path d="M0 0 C0.79140381 0.18054932 1.58280762 0.36109863 2.39819336 0.54711914 C9.58596097 2.29081967 15.89843854 4.95542716 22.4375 8.4375 C23.25605469 8.86160156 24.07460938 9.28570312 24.91796875 9.72265625 C32.09256212 13.56310124 39.38508188 17.97079976 45.4375 23.4375 C45.4375 24.0975 45.4375 24.7575 45.4375 25.4375 C46.0046875 25.67984375 46.571875 25.9221875 47.15625 26.171875 C53.59158936 29.74216602 58.65361011 36.25714652 62.4375 42.4375 C63.53439458 43.93154908 64.63214925 45.42496685 65.73046875 46.91796875 C83.7183525 72.58139596 87.43351257 107.26102922 82.125 137.5625 C81.22293173 142.15397975 80.05562003 145.55065514 77.4375 149.4375 C76.0628985 146.688297 76.97224442 144.98230435 77.74719238 142.12989807 C80.45458032 132.16229785 81.0816177 122.78440306 80.9375 112.5 C80.93162872 111.71312805 80.92575745 110.9262561 80.91970825 110.11553955 C80.81814946 98.49420669 80.27669762 87.50326146 76.4375 76.4375 C76.07543457 75.33897705 76.07543457 75.33897705 75.70605469 74.21826172 C70.48567659 58.64577535 63.05991834 45.15143345 51.4375 33.4375 C50.6125 32.57125 49.7875 31.705 48.9375 30.8125 C48.1125 30.02875 47.2875 29.245 46.4375 28.4375 C45.55964844 27.56738281 45.55964844 27.56738281 44.6640625 26.6796875 C28.63010982 11.48021563 7.10246049 3.13158835 -14.5625 0.4375 C-14.5625 0.1075 -14.5625 -0.2225 -14.5625 -0.5625 C-9.26644478 -1.84664651 -5.19212237 -1.20702068 0 0 Z " fill="#EDEDEA" transform="translate(593.5625,308.5625)"/>
<path d="M0 0 C5.78221403 0.62674348 7.92562062 3.5876551 11.58203125 7.83203125 C25 25.41195477 25 25.41195477 25 34 C19.74285714 38 19.74285714 38 17 38 C16.81566406 37.45214844 16.63132812 36.90429688 16.44140625 36.33984375 C12.45282955 25.43773411 6.41779793 14.70556062 -1.8828125 6.515625 C-2.25148438 6.01546875 -2.62015625 5.5153125 -3 5 C-2.67 4.01 -2.34 3.02 -2 2 C-1.34 2 -0.68 2 0 2 C0 1.34 0 0.68 0 0 Z " fill="#193415" transform="translate(641,341)"/>
<path d="M0 0 C0.66 0 1.32 0 2 0 C3.50312477 2.07828493 4.85724824 4.12791551 6.1875 6.3125 C6.56841797 6.90740234 6.94933594 7.50230469 7.34179688 8.11523438 C8.31362948 9.69380094 9.16521849 11.34486531 10 13 C9.67 13.99 9.34 14.98 9 16 C6.30371094 17.22680664 6.30371094 17.22680664 2.734375 18.41015625 C2.10396301 18.62312851 1.47355103 18.83610077 0.82403564 19.05552673 C-1.19708214 19.73576042 -3.22318078 20.3994701 -5.25 21.0625 C-7.26120771 21.73266159 -9.27128537 22.40612359 -11.28118896 23.08018494 C-13.11439313 23.69299466 -14.95020329 24.29799213 -16.78613281 24.90258789 C-19.56695924 25.85213323 -22.28509677 26.87794647 -25 28 C-23.74402986 24.23208959 -21.86655338 22.73331921 -19 20 C-12.76465977 13.84742977 -6.67784705 7.67771948 -1 1 C-0.67 0.67 -0.34 0.34 0 0 Z " fill="#0A0A0B" transform="translate(669,704)"/>
<path d="M0 0 C0.66 0.33 1.32 0.66 2 1 C-3.18556484 7.8728419 -8.44937215 14.67765447 -13.9375 21.3125 C-14.62743042 22.16557739 -14.62743042 22.16557739 -15.33129883 23.03588867 C-16.48727808 24.41618472 -17.73745918 25.71645184 -19 27 C-19.99 27 -20.98 27 -22 27 C-26.40774487 18.738041 -26.40774487 18.738041 -27 14 C-21.25023089 10.21952181 -15.34429241 7.06081505 -9.125 4.125 C-8.27164063 3.70992187 -7.41828125 3.29484375 -6.5390625 2.8671875 C-5.31703125 2.28710938 -5.31703125 2.28710938 -4.0703125 1.6953125 C-2.96840576 1.1696167 -2.96840576 1.1696167 -1.84423828 0.63330078 C-1.23563965 0.42431152 -0.62704102 0.21532227 0 0 Z " fill="#0E160F" transform="translate(623,630)"/>
<path d="M0 0 C1.89600369 0.31146472 3.79179587 0.62421717 5.6875 0.9375 C6.74324219 1.11152344 7.79898438 1.28554688 8.88671875 1.46484375 C11.60249604 1.93167121 14.30124235 2.44422616 17 3 C15.42606763 6.97625021 12.84878576 9.18624632 9.6875 12 C8.61291462 12.9644354 7.53871033 13.92929556 6.46484375 14.89453125 C5.90265137 15.39678223 5.34045898 15.8990332 4.76123047 16.41650391 C1.72908635 19.14265954 -1.25843161 21.91699164 -4.25 24.6875 C-5.35926974 25.71235352 -6.46863528 26.73710338 -7.578125 27.76171875 C-8.37734375 28.50035156 -9.1765625 29.23898437 -10 30 C-11 28 -11 28 -10.42675781 26.06396484 C-10.10545898 25.28746582 -9.78416016 24.5109668 -9.453125 23.7109375 C-9.1025 22.85113281 -8.751875 21.99132812 -8.390625 21.10546875 C-8.01421875 20.20441406 -7.6378125 19.30335938 -7.25 18.375 C-6.52525 16.61230446 -5.80128181 14.84928725 -5.078125 13.0859375 C-4.72685547 12.23354492 -4.37558594 11.38115234 -4.01367188 10.50292969 C-2.6057389 7.02650173 -1.29621426 3.51946784 0 0 Z " fill="#111110" transform="translate(659,590)"/>
<path d="M0 0 C2.86678015 1.74086807 5.16003492 3.70424113 7.6015625 6.00390625 C10.18066729 8.41838733 12.53257861 10.54125032 15.4765625 12.50390625 C15.4765625 13.16390625 15.4765625 13.82390625 15.4765625 14.50390625 C11.16407641 14.53277162 6.85161488 14.5506588 2.5390625 14.56640625 C0.69151367 14.57897461 0.69151367 14.57897461 -1.19335938 14.59179688 C-2.36318359 14.59501953 -3.53300781 14.59824219 -4.73828125 14.6015625 C-6.36431274 14.60941772 -6.36431274 14.60941772 -8.02319336 14.61743164 C-10.5234375 14.50390625 -10.5234375 14.50390625 -11.5234375 13.50390625 C-13.85161714 13.13629894 -16.185276 12.80149044 -18.5234375 12.50390625 C-15.31962226 8.96866184 -11.78863577 5.99828129 -8.0234375 3.06640625 C-7.105625 2.34582031 -6.1878125 1.62523437 -5.2421875 0.8828125 C-2.5234375 -0.49609375 -2.5234375 -0.49609375 0 0 Z " fill="#0A0C0C" transform="translate(378.5234375,728.49609375)"/>
<path d="M0 0 C2.69909798 2.69909798 3.4633281 5.84518915 4.6875 9.375 C9.03388648 21.3325887 14.96899637 30.96899637 24 40 C24.69867187 40.69867187 25.39734375 41.39734375 26.1171875 42.1171875 C35.29688551 50.75888123 45.81019449 56.32216025 57.52734375 60.65454102 C59.3827667 61.35911302 61.1964457 62.17162332 63 63 C63.495 64.485 63.495 64.485 64 66 C58.75687095 65.45200845 54.274837 64.19702521 49.4375 62.0625 C48.75002686 61.76110107 48.06255371 61.45970215 47.35424805 61.14916992 C39.88144155 57.71673798 33.458767 53.04037111 27 48 C26.15566406 47.37480469 25.31132813 46.74960937 24.44140625 46.10546875 C21.42466281 43.50382921 19.05814351 40.64167972 16.625 37.5 C16.14603271 36.8827002 15.66706543 36.26540039 15.17358398 35.62939453 C7.2820975 25.28003467 -0.4971487 13.48267278 0 0 Z " fill="#ACDE4C" transform="translate(499,605)"/>
<path d="M0 0 C3.52771899 1.17590633 3.71219328 1.7490785 5.41015625 4.89453125 C5.84263672 5.68537109 6.27511719 6.47621094 6.72070312 7.29101562 C7.16349609 8.12310547 7.60628906 8.95519531 8.0625 9.8125 C8.50916016 10.63298828 8.95582031 11.45347656 9.41601562 12.29882812 C11.33642744 15.83824184 13.21271208 19.39133697 15 23 C10.27965312 21.5335553 5.89483792 19.66822333 1.4375 17.5625 C0.79103516 17.26279297 0.14457031 16.96308594 -0.52148438 16.65429688 C-4.14536656 14.95479567 -7.60980035 13.12782204 -11 11 C-7.65295116 6.76696765 -4.40026234 3.15670994 0 0 Z " fill="#0B0D0D" transform="translate(343,689)"/>
<path d="M0 0 C-0.69150146 0.68626465 -1.38300293 1.3725293 -2.09545898 2.07958984 C-4.65674174 4.62279269 -7.21473009 7.16928709 -9.77172852 9.71679688 C-10.8795536 10.81958861 -11.98827393 11.92148176 -13.09790039 13.02246094 C-14.6913208 14.60377221 -16.28150948 16.18827124 -17.87109375 17.7734375 C-18.61799721 18.51259903 -18.61799721 18.51259903 -19.37998962 19.26669312 C-22.02334742 21.88137668 -22.02334742 21.88137668 -24 25 C-24.66 25 -25.32 25 -26 25 C-25.505 16.09 -25.505 16.09 -25 7 C-21.21139171 5.63669765 -17.41956481 4.284031 -13.625 2.9375 C-12.54476563 2.54755859 -11.46453125 2.15761719 -10.3515625 1.75585938 C-9.3203125 1.39169922 -8.2890625 1.02753906 -7.2265625 0.65234375 C-6.27346191 0.31195068 -5.32036133 -0.02844238 -4.33837891 -0.37915039 C-2 -1 -2 -1 0 0 Z " fill="#0F100F" transform="translate(375,515)"/>
<path d="M0 0 C0.66 0 1.32 0 2 0 C2.60548402 4.47385413 2.84272678 8.54707332 2 13 C-0.82562141 16.31358013 -4.13066409 18.08177398 -8 20 C-8.80695313 20.43054688 -9.61390625 20.86109375 -10.4453125 21.3046875 C-12.27144259 22.25375153 -14.13240893 23.13537451 -16 24 C-14.44833267 19.39730141 -11.96462859 15.87447866 -9.125 12 C-8.69058594 11.39671875 -8.25617188 10.7934375 -7.80859375 10.171875 C-2.57739433 2.94559353 -2.57739433 2.94559353 0 0 Z " fill="#10150F" transform="translate(444,411)"/>
<path d="M0 0 C13.34376321 20.01564481 11.374891 52.3563749 6.94921875 74.8828125 C6.00813734 77.97327738 4.79880355 80.32950734 3 83 C1.6253985 80.250797 2.53474442 78.54480435 3.30969238 75.69239807 C6.01762465 65.72279385 6.63818602 56.34819193 6.5 46.0625 C6.49579041 45.27961609 6.49158081 44.49673218 6.48724365 43.69012451 C6.40592729 30.78913506 5.2029028 19.03439479 0.8671875 6.8046875 C0 4 0 4 0 0 Z " fill="#F8F7F5" transform="translate(668,375)"/>
<path d="M0 0 C0.99 0.33 1.98 0.66 3 1 C2.21874756 1.77601563 1.43749512 2.55203125 0.63256836 3.3515625 C-2.29794608 6.26381553 -5.2250175 9.17950911 -8.15112305 12.09619141 C-9.41192215 13.3519982 -10.67362176 14.60690164 -11.9362793 15.86083984 C-21.78521741 25.63395443 -21.78521741 25.63395443 -31 36 C-32.02976863 37.20848613 -33.05971428 38.41682144 -34.08984375 39.625 C-35.03977008 40.7494026 -35.98899988 41.87439405 -36.9375 43 C-37.67709961 43.87591797 -37.67709961 43.87591797 -38.43164062 44.76953125 C-39.62172946 46.17915104 -40.81096106 47.58949449 -42 49 C-42.66 48.34 -43.32 47.68 -44 47 C-43.35933594 46.29875 -42.71867187 45.5975 -42.05859375 44.875 C-33.23606303 35.29247682 -33.23606303 35.29247682 -24.875 25.3125 C-21.80454919 21.52561067 -18.3716511 18.28875482 -14.625 15.1875 C-11.23476184 12.34383618 -8.46101045 9.16439473 -5.67578125 5.734375 C-3.90640727 3.9031348 -2.32716666 2.99373565 0 2 C0 1.34 0 0.68 0 0 Z " fill="#FAFBF7" transform="translate(475,271)"/>
<path d="M0 0 C4.07141378 2.40583541 7.12010257 5.7013627 9.75 9.625 C10.453125 12.38671875 10.453125 12.38671875 10.75 14.625 C10.09 14.625 9.43 14.625 8.75 14.625 C8.42 15.285 8.09 15.945 7.75 16.625 C1.63056041 13.76926153 -0.93296573 11.95822701 -3.25 5.625 C-3.90213539 4.28449948 -4.56379969 2.94838632 -5.25 1.625 C-2.25 -0.375 -2.25 -0.375 0 0 Z " fill="#173213" transform="translate(387.25,699.375)"/>
<path d="M0 0 C7.65982395 7.26447819 11.94120523 17.01154627 15 27 C15 28.32 15 29.64 15 31 C14.01 31.33 13.02 31.66 12 32 C11.67128906 30.89205078 11.67128906 30.89205078 11.3359375 29.76171875 C8.34702045 20.19961421 4.47223831 11.71689952 -2 4 C-2 3.34 -2 2.68 -2 2 C-1.34 2 -0.68 2 0 2 C0 1.34 0 0.68 0 0 Z " fill="#8CC63C" transform="translate(529,404)"/>
<path d="M0 0 C2.28125 1.41796875 2.28125 1.41796875 4.5 3.1875 C14.2485795 10.30527844 25.24514821 13.77399817 37 16 C37 16.33 37 16.66 37 17 C26.24820721 17.70503559 17.5843018 13.44900923 8 9 C8 8.34 8 7.68 8 7 C7.484375 6.9175 6.96875 6.835 6.4375 6.75 C4 6 4 6 0.625 3.875 C-1.94291255 2.38114004 -2.86549327 2 -5.9375 2 C-9.25902157 3.08457847 -12.14080633 4.52629948 -15.16796875 6.2578125 C-17 7 -17 7 -20 6 C-17.80087504 4.79198752 -15.59338181 3.60918053 -13.375 2.4375 C-12.75753906 2.09525391 -12.14007813 1.75300781 -11.50390625 1.40039062 C-7.23595695 -0.82343559 -4.60408915 -1.49218402 0 0 Z " fill="#F6F8F1" transform="translate(522,726)"/>
<path d="M0 0 C2.69831999 2.69831999 3.46589707 5.84488495 4.6875 9.375 C7.0488035 15.99068238 9.89643771 21.70761329 13.6796875 27.64453125 C15 30 15 30 15 33 C14.34 33 13.68 33 13 33 C6.04973308 23.76366294 -0.56937519 11.79674214 0 0 Z " fill="#A0D343" transform="translate(499,605)"/>
<path d="M0 0 C1.90608098 3.21182149 2.22266247 5.53882603 2.125 9.25 C2.10695313 10.14203125 2.08890625 11.0340625 2.0703125 11.953125 C2.03550781 12.96632813 2.03550781 12.96632813 2 14 C2.99 14.33 3.98 14.66 5 15 C4.38080922 16.46080933 3.75443308 17.91857455 3.125 19.375 C2.77695312 20.18710937 2.42890625 20.99921875 2.0703125 21.8359375 C1 24 1 24 -1 26 C-1.33 17.75 -1.66 9.5 -2 1 C-1.34 0.67 -0.68 0.34 0 0 Z " fill="#91C745" transform="translate(544,436)"/>
<path d="M0 0 C3.74414185 1.58709526 6.31080994 3.97643001 9.3125 6.6875 C18.71155893 14.80707508 29.90520504 19.3597641 42 22 C42 22.66 42 23.32 42 24 C27.05174441 22.73319868 12.20519181 14.2964735 2.4375 3.0625 C1.633125 2.051875 0.82875 1.04125 0 0 Z " fill="#CFE5A2" transform="translate(515,708)"/>
<path d="M0 0 C4.3512292 0.50560058 6.36919759 1.86546106 9.5 4.875 C11.84646516 7.11405654 13.93475699 8.96087291 16.72265625 10.6328125 C19 12 19 12 19.9375 14 C20 16 20 16 18 19 C15.46875 20.421875 15.46875 20.421875 12.5 21.75 C11.03046875 22.42289063 11.03046875 22.42289063 9.53125 23.109375 C8.6959375 23.40328125 7.860625 23.6971875 7 24 C6.34 23.67 5.68 23.34 5 23 C6.78881736 21.99491199 8.58114696 20.99607264 10.375 20 C11.37273438 19.443125 12.37046875 18.88625 13.3984375 18.3125 C16 17 16 17 18 17 C13.95282632 12.81792053 9.65002244 8.95579506 5.3046875 5.0859375 C3.4798561 3.43431044 1.71698015 1.76186852 0 0 Z " fill="#EBEBEA" transform="translate(710,632)"/>
<path d="M0 0 C-5.24225372 2.47878752 -10.09469039 3.80163363 -15.8125 4.6875 C-16.60060059 4.81487549 -17.38870117 4.94225098 -18.20068359 5.07348633 C-23.85740108 5.94102035 -29.27199294 6.27716163 -35 6 C-34.67 5.01 -34.34 4.02 -34 3 C-31.64516112 1.82258056 -30.36206594 1.9251654 -27.74609375 2.0078125 C-26.4631543 2.03294922 -26.4631543 2.03294922 -25.15429688 2.05859375 C-23.3702154 2.10220178 -21.58631208 2.15402494 -19.80273438 2.21484375 C-14.29890332 2.30513777 -10.00484489 1.64439076 -4.89477539 -0.44580078 C-3 -1 -3 -1 0 0 Z " fill="#546353" transform="translate(502,734)"/>
<path d="M0 0 C0.33 0 0.66 0 1 0 C1.04982621 4.81972791 1.08591929 9.6393024 1.10986328 14.45922852 C1.11985617 16.09532283 1.13345507 17.73139959 1.15087891 19.36743164 C1.37967716 41.41954582 1.37967716 41.41954582 -4 49 C-5.31989039 46.36021922 -4.51744639 45.02209375 -3.71582031 42.30053711 C0.24300462 28.5607972 -0.16172851 14.18610021 0 0 Z " fill="#C7CAC2" transform="translate(675,409)"/>
<path d="M0 0 C6.09645172 1.66636347 10.59188176 3.3768516 15 8 C16.375 11.3125 16.375 11.3125 17 14 C13.002462 13.46396649 11.23153504 11.54532176 8.5 8.6875 C7.7471875 7.90761719 6.994375 7.12773437 6.21875 6.32421875 C5.4865625 5.55722656 4.754375 4.79023438 4 4 C2.67008691 2.66325517 1.33788651 1.32876456 0 0 Z " fill="#9DD343" transform="translate(512,392)"/>
<path d="M0 0 C-1.54841575 3.34708051 -3.49105864 6.24667512 -5.625 9.25 C-6.25664063 10.14203125 -6.88828125 11.0340625 -7.5390625 11.953125 C-8.02117188 12.62859375 -8.50328125 13.3040625 -9 14 C-9.99 13.67 -10.98 13.34 -12 13 C-11.68444225 7.79329712 -8.69871603 4.42269244 -5 1 C-2 0 -2 0 0 0 Z " fill="#5D9F3C" transform="translate(673,659)"/>
<path d="M0 0 C0.78955078 0.17015625 1.57910156 0.3403125 2.39257812 0.515625 C6.69244626 1.49598052 10.36779911 2.52065123 13.9375 5.25 C13.9375 5.91 13.9375 6.57 13.9375 7.25 C13.410354 7.05881592 12.88320801 6.86763184 12.34008789 6.6706543 C6.42306102 4.60211066 0.52849745 3.22277061 -5.625 2.0625 C-6.53830078 1.88525391 -7.45160156 1.70800781 -8.39257812 1.52539062 C-10.61491071 1.09488641 -12.83813547 0.66985482 -15.0625 0.25 C-15.0625 -0.08 -15.0625 -0.41 -15.0625 -0.75 C-9.59617537 -2.11877471 -5.35271414 -1.26462811 0 0 Z " fill="#ECEDE9" transform="translate(594.0625,308.75)"/>
<path d="M0 0 C0.66 0 1.32 0 2 0 C3.59162079 5.57067277 4.20674944 10.21101581 4 16 C3.34 16 2.68 16 2 16 C1.34 16.66 0.68 17.32 0 18 C-1.60670684 14.78658631 -0.82510855 11.37041032 -0.5625 7.875 C-0.51029297 7.12089844 -0.45808594 6.36679687 -0.40429688 5.58984375 C-0.27454996 3.7262063 -0.13792512 1.86305004 0 0 Z " fill="#1F321B" transform="translate(669,385)"/>
<path d="M0 0 C2.1385485 2.1385485 2.42655063 3.13275314 3 6 C1.35 6.33 -0.3 6.66 -2 7 C-2.15855469 7.84304688 -2.31710937 8.68609375 -2.48046875 9.5546875 C-2.71378906 10.65039062 -2.94710937 11.74609375 -3.1875 12.875 C-3.40792969 13.96554687 -3.62835937 15.05609375 -3.85546875 16.1796875 C-5 19 -5 19 -7.61328125 20.3828125 C-8.40089844 20.58648438 -9.18851563 20.79015625 -10 21 C-8.27502493 16.3970402 -6.0904129 12.06744176 -3.875 7.6875 C-3.50246094 6.94693359 -3.12992188 6.20636719 -2.74609375 5.44335938 C-1.83255194 3.62798783 -0.91652513 1.81386718 0 0 Z " fill="#3A5F29" transform="translate(523,532)"/>
<path d="M0 0 C2.72456452 3.16927649 4.55316065 5.80308817 5.75 9.8125 C6.11351562 10.99779297 6.11351562 10.99779297 6.484375 12.20703125 C6.65453125 12.79871094 6.8246875 13.39039063 7 14 C3.25 15.125 3.25 15.125 1 14 C0.5859375 10.83984375 0.5859375 10.83984375 0.375 6.9375 C0.30023437 5.64714844 0.22546875 4.35679687 0.1484375 3.02734375 C0.09945312 2.02832031 0.05046875 1.02929688 0 0 Z " fill="#8EC73F" transform="translate(544,340)"/>
<path d="M0 0 C1.97986082 0.11347619 3.95891598 0.2410935 5.9375 0.375 C7.03964844 0.44460938 8.14179687 0.51421875 9.27734375 0.5859375 C10.17582031 0.72257812 11.07429687 0.85921875 12 1 C12.33 1.66 12.66 2.32 13 3 C8.84373632 4.00926479 4.95634906 4.10239579 0.6875 4.0625 C-0.56675781 4.05347656 -1.82101562 4.04445313 -3.11328125 4.03515625 C-4.06589844 4.02355469 -5.01851562 4.01195312 -6 4 C-5.67 3.34 -5.34 2.68 -5 2 C-3.35 2 -1.7 2 0 2 C0 1.34 0 0.68 0 0 Z " fill="#0F290D" transform="translate(585,311)"/>
<path d="M0 0 C2.46800047 1.15173355 4.04783565 2.04783565 6 4 C6 5.32 6 6.64 6 8 C5.34 8 4.68 8 4 8 C3.67 8.66 3.34 9.32 3 10 C0.5 8.1875 0.5 8.1875 -2 6 C-2 5.01 -2 4.02 -2 3 C-1.34 3 -0.68 3 0 3 C0 2.01 0 1.02 0 0 Z " fill="#102C0F" transform="translate(392,706)"/>
<path d="M0 0 C2.41760876 0.11426509 4.83347218 0.24099661 7.25 0.375 C7.93191406 0.4059375 8.61382812 0.436875 9.31640625 0.46875 C12.98739038 0.68259374 15.86251616 1.01077055 19 3 C18.34 3 17.68 3 17 3 C17.33 4.32 17.66 5.64 18 7 C12 5 6 3 0 1 C0 0.67 0 0.34 0 0 Z " fill="#98CD3F" transform="translate(482,378)"/>
<path d="M0 0 C0.47050781 0.40992188 0.94101562 0.81984375 1.42578125 1.2421875 C2.04839844 1.78101563 2.67101562 2.31984375 3.3125 2.875 C3.92738281 3.40867187 4.54226563 3.94234375 5.17578125 4.4921875 C7.13498212 6.1640447 7.13498212 6.1640447 10 8 C10 8.99 10 9.98 10 11 C10.66 11 11.32 11 12 11 C12 11.66 12 12.32 12 13 C9 13 9 13 6.625 10.8125 C5.75875 9.884375 4.8925 8.95625 4 8 C3.071875 7.071875 2.14375 6.14375 1.1875 5.1875 C0.465625 4.465625 -0.25625 3.74375 -1 3 C-0.67 2.01 -0.34 1.02 0 0 Z " fill="#9CD241" transform="translate(508,712)"/>
<path d="M0 0 C0.66 0.99 1.32 1.98 2 3 C1.54625 3.680625 1.0925 4.36125 0.625 5.0625 C-1.16836486 8.30435186 -2.08753869 11.4203441 -3 15 C-3.66 15 -4.32 15 -5 15 C-6.37310707 16.29233607 -7.71034824 17.62437146 -9 19 C-7.6077541 14.37324343 -5.70479016 10.35313769 -3.375 6.125 C-2.74335938 4.97257813 -2.11171875 3.82015625 -1.4609375 2.6328125 C-0.97882813 1.76398437 -0.49671875 0.89515625 0 0 Z " fill="#293D26" transform="translate(377,565)"/>
<path d="M0 0 C2.5 1.375 2.5 1.375 5 3 C5 3.66 5 4.32 5 5 C-3.58 5 -12.16 5 -21 5 C-21 4.67 -21 4.34 -21 4 C-20.43490723 3.98541748 -19.86981445 3.97083496 -19.28759766 3.95581055 C-16.73269981 3.88143942 -14.17912502 3.78474758 -11.625 3.6875 C-10.73554688 3.66494141 -9.84609375 3.64238281 -8.9296875 3.61914062 C-8.07890625 3.58369141 -7.228125 3.54824219 -6.3515625 3.51171875 C-5.17327881 3.47244263 -5.17327881 3.47244263 -3.97119141 3.43237305 C-1.59959844 3.15110403 -1.59959844 3.15110403 0 0 Z " fill="#565756" transform="translate(389,738)"/>
<path d="M0 0 C1.875 1.5625 1.875 1.5625 3 3 C1.741875 2.731875 0.48375 2.46375 -0.8125 2.1875 C-6.26181339 1.52252832 -9.88404793 3.43362112 -14.6171875 5.96875 C-17 7 -17 7 -20 6 C-17.80087504 4.79198752 -15.59338181 3.60918053 -13.375 2.4375 C-12.75753906 2.09525391 -12.14007813 1.75300781 -11.50390625 1.40039062 C-7.26175738 -0.80999221 -4.5809079 -1.51603112 0 0 Z " fill="#E6E8E2" transform="translate(522,726)"/>
<path d="M0 0 C0.33 0 0.66 0 1 0 C1.08078641 2.12438339 1.13909141 4.2496323 1.1875 6.375 C1.22230469 7.55835938 1.25710938 8.74171875 1.29296875 9.9609375 C1.19628906 10.96382812 1.09960938 11.96671875 1 13 C0.01 13.66 -0.98 14.32 -2 15 C-3.45970366 12.68164713 -4.03077997 11.38987957 -3.8125 8.625 C-2.86046637 5.54919903 -1.5165303 2.8352523 0 0 Z " fill="#73B236" transform="translate(498,579)"/>
<path d="M0 0 C2 2 2 2 2.125 5.125 C2.08375 6.07375 2.0425 7.0225 2 8 C1.01 8.33 0.02 8.66 -1 9 C-2.23277127 10.86022072 -2.23277127 10.86022072 -3.1875 13.0625 C-3.53167969 13.79597656 -3.87585938 14.52945312 -4.23046875 15.28515625 C-4.48441406 15.85105469 -4.73835938 16.41695313 -5 17 C-5.66 17 -6.32 17 -7 17 C-5.24009216 11.08030998 -2.60305395 5.58365008 0 0 Z " fill="#476A35" transform="translate(434,456)"/>
<path d="M0 0 C5.61 0.66 11.22 1.32 17 2 C17 1.34 17 0.68 17 0 C19.31 0 21.62 0 24 0 C23 2 23 2 21.18994141 2.61669922 C19.06487986 2.98864422 17.11605106 3.12923003 14.9609375 3.1328125 C13.84332031 3.13474609 13.84332031 3.13474609 12.703125 3.13671875 C11.93484375 3.13285156 11.1665625 3.12898437 10.375 3.125 C9.59898437 3.12886719 8.82296875 3.13273438 8.0234375 3.13671875 C2.25340266 3.12670133 2.25340266 3.12670133 0 2 C0 1.34 0 0.68 0 0 Z " fill="#B8DD78" transform="translate(558,731)"/>
<path d="M0 0 C1.90608098 3.21182149 2.22266247 5.53882603 2.125 9.25 C2.10695313 10.14203125 2.08890625 11.0340625 2.0703125 11.953125 C2.03550781 12.96632813 2.03550781 12.96632813 2 14 C2.99 14.33 3.98 14.66 5 15 C4.01 17.31 3.02 19.62 2 22 C1.67 22 1.34 22 1 22 C0.67 16.39 0.34 10.78 0 5 C-0.66 5 -1.32 5 -2 5 C-2 3.68 -2 2.36 -2 1 C-1.34 0.67 -0.68 0.34 0 0 Z " fill="#7CB43E" transform="translate(544,436)"/>
<path d="M0 0 C0.598125 0.20625 1.19625 0.4125 1.8125 0.625 C0.8225 1.285 -0.1675 1.945 -1.1875 2.625 C-1.69526044 4.84432277 -1.69526044 4.84432277 -1.69921875 7.4140625 C-1.73466797 8.35507812 -1.77011719 9.29609375 -1.80664062 10.265625 C-1.84047852 11.74289062 -1.84047852 11.74289062 -1.875 13.25 C-1.90916016 14.24257813 -1.94332031 15.23515625 -1.97851562 16.2578125 C-2.06115657 18.71342906 -2.13025127 21.16868141 -2.1875 23.625 C-2.5175 23.625 -2.8475 23.625 -3.1875 23.625 C-3.5175 17.355 -3.8475 11.085 -4.1875 4.625 C-5.1775 5.12 -5.1775 5.12 -6.1875 5.625 C-5.875 3.75 -5.875 3.75 -5.1875 1.625 C-2.1875 -0.375 -2.1875 -0.375 0 0 Z " fill="#2D5419" transform="translate(517.1875,551.375)"/>
<path d="M0 0 C0.66 0.33 1.32 0.66 2 1 C0.52464063 3.00291212 -0.95502293 5.00236777 -2.4375 7 C-2.85837891 7.57234375 -3.27925781 8.1446875 -3.71289062 8.734375 C-4.78444136 10.17453919 -5.88966676 11.58951996 -7 13 C-7.33 13 -7.66 13 -8 13 C-8.1875 10.625 -8.1875 10.625 -8 8 C-7.01 7.34 -6.02 6.68 -5 6 C-4.7834375 5.01 -4.7834375 5.01 -4.5625 4 C-4 2 -4 2 -2.0625 0.6875 C-1.381875 0.460625 -0.70125 0.23375 0 0 Z " fill="#171A18" transform="translate(623,630)"/>
<path d="M0 0 C-1.125 1.48046875 -1.125 1.48046875 -3 3 C-5.8125 3.36328125 -5.8125 3.36328125 -9 3.3125 C-10.5778125 3.30669922 -10.5778125 3.30669922 -12.1875 3.30078125 C-15 3 -15 3 -18 1 C-11.97403427 -0.0712828 -6.11090483 -0.09945415 0 0 Z " fill="#0F260D" transform="translate(462,737)"/>
<path d="M0 0 C0.33 0.99 0.66 1.98 1 3 C-0.65234375 5.91796875 -0.65234375 5.91796875 -2.9375 9.1875 C-3.32357422 9.74630859 -3.70964844 10.30511719 -4.10742188 10.88085938 C-5.06242753 12.26031198 -6.03004093 13.63102056 -7 15 C-7.99 14.67 -8.98 14.34 -10 14 C-9.67 13.01 -9.34 12.02 -9 11 C-8.34 11 -7.68 11 -7 11 C-7 10.34 -7 9.68 -7 9 C-6.34 9 -5.68 9 -5 9 C-5 8.01 -5 7.02 -5 6 C-3.42698959 4.1409877 -2.18380083 3.09190042 0 2 C0 1.34 0 0.68 0 0 Z " fill="#68A53E" transform="translate(659,676)"/>
<path d="M0 0 C0.99 0.33 1.98 0.66 3 1 C2.6875 2.9375 2.6875 2.9375 2 5 C1.01 5.33 0.02 5.66 -1 6 C-1.72904086 7.64034193 -2.38655243 9.31301918 -3 11 C-3.97236487 12.6829392 -4.96564444 14.35443434 -6 16 C-6.33 15.34 -6.66 14.68 -7 14 C-5.92481882 11.55667274 -4.80191434 9.23245477 -3.5625 6.875 C-3.22412109 6.21628906 -2.88574219 5.55757813 -2.53710938 4.87890625 C-1.69850074 3.24893453 -0.85015189 1.62398091 0 0 Z " fill="#476938" transform="translate(426,473)"/>
<path d="M0 0 C5.53846154 0.61538462 5.53846154 0.61538462 7.875 2.5625 C8.431875 3.2740625 8.431875 3.2740625 9 4 C5.25 7 5.25 7 3 7 C0 2.61538462 0 2.61538462 0 0 Z " fill="#839180" transform="translate(596,322)"/>
<path d="M0 0 C6.96327638 -0.33693273 12.43345544 0.6969113 19 3 C18.67 3.66 18.34 4.32 18 5 C14.37 4.34 10.74 3.68 7 3 C7 2.34 7 1.68 7 1 C4.69 1 2.38 1 0 1 C0 0.67 0 0.34 0 0 Z " fill="#ACE04C" transform="translate(475,375)"/>
<path d="M0 0 C0.66 0.33 1.32 0.66 2 1 C-0.26562546 2.50842171 -2.53686163 4.00682251 -4.8125 5.5 C-5.45509766 5.92925781 -6.09769531 6.35851562 -6.75976562 6.80078125 C-11.66015625 10 -11.66015625 10 -15 10 C-15 9.34 -15 8.68 -15 8 C-12.54665445 6.63603538 -10.08808766 5.28365831 -7.625 3.9375 C-6.92632813 3.54755859 -6.22765625 3.15761719 -5.5078125 2.75585938 C-3.70389816 1.77584822 -1.85416518 0.88124929 0 0 Z " fill="#E5E6E6" transform="translate(694,666)"/>
<path d="M0 0 C0.99 0.33 1.98 0.66 3 1 C3 5.95 3 10.9 3 16 C2.67 16 2.34 16 2 16 C2 13.69 2 11.38 2 9 C1.34 9 0.68 9 0 9 C0 6.03 0 3.06 0 0 Z " fill="#273125" transform="translate(457,621)"/>
<path d="M0 0 C2 2.5 2 2.5 4 5 C4.763125 5.86625 5.52625 6.7325 6.3125 7.625 C6.869375 8.40875 7.42625 9.1925 8 10 C7.67 10.99 7.34 11.98 7 13 C4.04415849 10.24800963 1.81234853 7.62469707 0 4 C0 2.68 0 1.36 0 0 Z " fill="#EBEAEA" transform="translate(317,604)"/>
<path d="M0 0 C3 3 3 3 3.14453125 4.97265625 C3.03496094 5.66230469 2.92539062 6.35195313 2.8125 7.0625 C2.71582031 7.75472656 2.61914062 8.44695312 2.51953125 9.16015625 C2 11 2 11 0 13 C0 8.71 0 4.42 0 0 Z " fill="#152712" transform="translate(669,445)"/>
<path d="M0 0 C0.66 0 1.32 0 2 0 C1.67 2.64 1.34 5.28 1 8 C1.66 8.33 2.32 8.66 3 9 C1.02 13.455 1.02 13.455 -1 18 C-2.54158553 14.91682893 -1.53517134 12.37157946 -1 9 C-0.64315498 6.00250182 -0.31990348 3.00164751 0 0 Z " fill="#426830" transform="translate(446,415)"/>
<path d="M0 0 C-2.36689329 2.19219402 -3.51727269 2.9871902 -6.796875 3.07421875 C-7.77140625 2.94660156 -8.7459375 2.81898438 -9.75 2.6875 C-10.73484375 2.56761719 -11.7196875 2.44773437 -12.734375 2.32421875 C-13.48203125 2.21722656 -14.2296875 2.11023438 -15 2 C-15 1.67 -15 1.34 -15 1 C-10.03926578 -0.32286246 -5.08888488 -0.08893197 0 0 Z " fill="#344832" transform="translate(564,308)"/>
<path d="M0 0 C0.66 0.66 1.32 1.32 2 2 C1.04882866 3.1725131 0.08882991 4.33787015 -0.875 5.5 C-1.40867187 6.1496875 -1.94234375 6.799375 -2.4921875 7.46875 C-2.98976563 7.9740625 -3.48734375 8.479375 -4 9 C-4.66 9 -5.32 9 -6 9 C-5.1875 6.5625 -5.1875 6.5625 -4 4 C-3.01 3.67 -2.02 3.34 -1 3 C-0.67 2.01 -0.34 1.02 0 0 Z " fill="#7FB244" transform="translate(640,700)"/>
<path d="M0 0 C0.33 0.99 0.66 1.98 1 3 C-0.32 4.32 -1.64 5.64 -3 7 C-3.66 6.67 -4.32 6.34 -5 6 C-4.67 4.35 -4.34 2.7 -4 1 C-2.68 0.67 -1.36 0.34 0 0 Z " fill="#549730" transform="translate(666,666)"/>
<path d="M0 0 C2.475 0.99 2.475 0.99 5 2 C5 2.66 5 3.32 5 4 C0.05 5.485 0.05 5.485 -5 7 C-5 6.34 -5 5.68 -5 5 C-4.360625 4.731875 -3.72125 4.46375 -3.0625 4.1875 C-0.66868314 3.11332248 -0.66868314 3.11332248 0 0 Z " fill="#B9DC81" transform="translate(592,724)"/>
<path d="M0 0 C3.45195767 1.4258086 5.1014256 3.09746334 7.25 6.125 C8.03117188 7.21167969 8.03117188 7.21167969 8.828125 8.3203125 C9.40820312 9.15175781 9.40820312 9.15175781 10 10 C9.67 10.66 9.34 11.32 9 12 C7.86966702 10.75482035 6.74594964 9.50363348 5.625 8.25 C4.99851562 7.55390625 4.37203125 6.8578125 3.7265625 6.140625 C2.12494817 4.15491312 1.03479932 2.32045907 0 0 Z " fill="#BFDF87" transform="translate(505,696)"/>
<path d="M0 0 C3.72114571 2.31537955 6.61229661 4.28579473 9 8 C6.69 7.34 4.38 6.68 2 6 C2 5.34 2 4.68 2 4 C1.34 3.67 0.68 3.34 0 3 C0 2.01 0 1.02 0 0 Z " fill="#AEE153" transform="translate(509,386)"/>
<path d="M0 0 C2.25245881 2.68841859 3.88213958 4.64641875 5 8 C-0.75 6.25 -0.75 6.25 -3 4 C-2.01 4 -1.02 4 0 4 C0 2.68 0 1.36 0 0 Z " fill="#222526" transform="translate(353,704)"/>
<path d="M0 0 C0.99 0.33 1.98 0.66 3 1 C1.35 2.98 -0.3 4.96 -2 7 C-2.66 6.01 -3.32 5.02 -4 4 C-2.68 2.68 -1.36 1.36 0 0 Z " fill="#6AA139" transform="translate(645,694)"/>
<path d="M0 0 C1.25541557 3.76624671 0.37061958 5.37188934 -1 9 C-1.66 9 -2.32 9 -3 9 C-3 9.66 -3 10.32 -3 11 C-3.66 11 -4.32 11 -5 11 C-3.77472971 6.94718288 -2.30119506 3.55639236 0 0 Z " fill="#2E432B" transform="translate(383,554)"/>
<path d="M0 0 C0.33 0.99 0.66 1.98 1 3 C-0.1446875 3.4021875 -0.1446875 3.4021875 -1.3125 3.8125 C-3.87380884 4.94424112 -5.19692938 5.91223401 -7 8 C-7.66 7.67 -8.32 7.34 -9 7 C-7.88121617 5.82737096 -6.75476949 4.66204862 -5.625 3.5 C-4.68527344 2.52546875 -4.68527344 2.52546875 -3.7265625 1.53125 C-2 0 -2 0 0 0 Z " fill="#393C3C" transform="translate(671,704)"/>
<path d="M0 0 C0.99 0.495 0.99 0.495 2 1 C2 1.66 2 2.32 2 3 C2.66 3 3.32 3 4 3 C5.625 5.5 5.625 5.5 7 8 C6.01 8.33 5.02 8.66 4 9 C0 2.25 0 2.25 0 0 Z " fill="#97D23D" transform="translate(494,695)"/>
<path d="M0 0 C4.31392226 0.4793247 6.16569547 1.7457985 9 5 C8.67 5.66 8.34 6.32 8 7 C6.66382648 6.02471263 5.3311249 5.04466681 4 4.0625 C3.2575 3.51722656 2.515 2.97195313 1.75 2.41015625 C1.1725 1.94480469 0.595 1.47945312 0 1 C0 0.67 0 0.34 0 0 Z " fill="#E2E2E2" transform="translate(710,632)"/>
<path d="M0 0 C0.66 0.99 1.32 1.98 2 3 C0.02 5.64 -1.96 8.28 -4 11 C-4.33 10.34 -4.66 9.68 -5 9 C-4.00390625 6.8359375 -4.00390625 6.8359375 -2.5625 4.375 C-2.08941406 3.55773437 -1.61632812 2.74046875 -1.12890625 1.8984375 C-0.75636719 1.27195312 -0.38382812 0.64546875 0 0 Z " fill="#334931" transform="translate(377,565)"/>
<path d="M0 0 C2.1385485 2.1385485 2.42655063 3.13275314 3 6 C1.02 6.66 -0.96 7.32 -3 8 C-1.125 2.25 -1.125 2.25 0 0 Z " fill="#3C5F2D" transform="translate(536,507)"/>
<path d="M0 0 C2.97 1.98 2.97 1.98 6 4 C5.67 4.99 5.34 5.98 5 7 C4.01 7.33 3.02 7.66 2 8 C1.855625 7.236875 1.71125 6.47375 1.5625 5.6875 C1.0367406 2.91827092 1.0367406 2.91827092 0 0 Z " fill="#192615" transform="translate(511,719)"/>
<path d="M0 0 C2.25 -0.25 2.25 -0.25 5 0 C7.3125 2 7.3125 2 9 4 C8.67 4.66 8.34 5.32 8 6 C6.66402348 5.19185349 5.331275 4.37836819 4 3.5625 C3.2575 3.11003906 2.515 2.65757812 1.75 2.19140625 C1.1725 1.79824219 0.595 1.40507813 0 1 C0 0.67 0 0.34 0 0 Z " fill="#7D8D77" transform="translate(406,715)"/>
<path d="M0 0 C1.5 1.25 1.5 1.25 3 3 C3 4.32 3 5.64 3 7 C2.01 6.67 1.02 6.34 0 6 C-0.38218767 4.34385343 -0.71395102 2.67542976 -1 1 C-0.67 0.67 -0.34 0.34 0 0 Z " fill="#93CF3F" transform="translate(538,420)"/>
<path d="M0 0 C1.7074998 1.28062485 3.37373596 2.61767557 5 4 C5 4.66 5 5.32 5 6 C3.125 5.75 3.125 5.75 1 5 C-0.25 2.9375 -0.25 2.9375 -1 1 C-0.67 0.67 -0.34 0.34 0 0 Z " fill="#A3D846" transform="translate(524,400)"/>
<path d="M0 0 C1.98 1.65 3.96 3.3 6 5 C5.67 5.99 5.34 6.98 5 8 C2.5 5.6875 2.5 5.6875 0 3 C0 2.01 0 1.02 0 0 Z " fill="#284323" transform="translate(380,701)"/>
<path d="M0 0 C1.98 0 3.96 0 6 0 C6.33 0.99 6.66 1.98 7 3 C4.69 2.67 2.38 2.34 0 2 C0 1.34 0 0.68 0 0 Z " fill="#A3D845" transform="translate(564,670)"/>
<path d="M0 0 C0.99 0.33 1.98 0.66 3 1 C3.875 2.875 3.875 2.875 4 5 C2.5625 6.75 2.5625 6.75 1 8 C0.67 5.36 0.34 2.72 0 0 Z " fill="#305814" transform="translate(500,603)"/>
<path d="M0 0 C0 0.33 0 0.66 0 1 C-3.63 0.67 -7.26 0.34 -11 0 C-11 -0.33 -11 -0.66 -11 -1 C-6.58937864 -2.0257259 -4.07369424 -2.03684712 0 0 Z " fill="#CFD4CC" transform="translate(590,309)"/>
<path d="M0 0 C1.32 0 2.64 0 4 0 C3.34 1.98 2.68 3.96 2 6 C1.34 5.67 0.68 5.34 0 5 C0 3.35 0 1.7 0 0 Z " fill="#2C4524" transform="translate(635,525)"/>
</svg>
